<?xml version="1.0" encoding="utf-8"?>
<!-- Generator: Adobe Illustrator 16.0.3, SVG Export Plug-In . SVG Version: 6.00 Build 0)  -->
<!DOCTYPE svg PUBLIC "-//W3C//DTD SVG 1.1//EN" "http://www.w3.org/Graphics/SVG/1.1/DTD/svg11.dtd">
<svg version="1.1" id="Calque_1" xmlns="http://www.w3.org/2000/svg" xmlns:xlink="http://www.w3.org/1999/xlink" x="0px" y="0px"
	 width="113.644px" height="15.636px" viewBox="0 0 113.644 15.636" enable-background="new 0 0 113.644 15.636"
	 xml:space="preserve">
<g>
	<path fill-rule="evenodd" clip-rule="evenodd" fill="#FFFFFF" d="M24.764,0h-9.112c-1.593,0-2.882,1.289-2.882,2.879v9.837
		c0,1.591,1.289,2.88,2.882,2.88h9.112c1.592,0,2.882-1.289,2.882-2.88V2.879C27.646,1.289,26.355,0,24.764,0L24.764,0z
		 M23.243,9.064l2.067,6.098l-4.937-3.832l-4.77,3.799l1.9-5.932l-4.402-3.332h5.471l1.734-5.432l1.834,5.432h5.138L23.243,9.064
		L23.243,9.064z"/>
	<path fill-rule="evenodd" clip-rule="evenodd" fill="#FFFFFF" d="M60.18,15.636c-1.857,0-3.362-1.505-3.362-3.36v-8.6
		c0-1.854,1.505-3.359,3.362-3.359h8.313v4.121h-7.239v1.479h7.239v4.121h-7.239v1.477h7.239v4.122H60.18L60.18,15.636z"/>
	<path fill-rule="evenodd" clip-rule="evenodd" fill="#FFFFFF" d="M41.634,3.676c0-1.854-1.506-3.359-3.362-3.359h-9.17v15.319
		h4.437V4.438h3.658v11.198h4.438V3.676L41.634,3.676z"/>
	<path fill-rule="evenodd" clip-rule="evenodd" fill="#FFFFFF" d="M3.362,15.636C1.505,15.636,0,14.131,0,12.277V3.676
		C0,1.82,1.505,0.316,3.362,0.316h8.157v4.121H4.436v7.076h7.084v4.122H3.362L3.362,15.636z"/>
	<polygon fill-rule="evenodd" clip-rule="evenodd" fill="#FFFFFF" points="41.441,0.316 46.034,0.316 49.07,9.648 52.183,0.316 
		56.775,0.316 51.639,15.636 46.501,15.636 41.441,0.316 	"/>
	<path fill-rule="evenodd" clip-rule="evenodd" fill="#FFFFFF" d="M93.119,15.636c1.856,0,3.362-1.505,3.362-3.36v-3
		c0-1.855-1.506-3.359-3.362-3.359h-4.655V4.438h7.473V0.316H87.39c-1.856,0-3.362,1.505-3.362,3.359v3.001
		c0,1.856,1.506,3.359,3.362,3.359h4.732v1.478h-8.095v4.122H93.119L93.119,15.636z"/>
	<path fill-rule="evenodd" clip-rule="evenodd" fill="#FFFFFF" d="M109.482,15.636h-8.313c-1.856,0-3.362-1.505-3.362-3.36v-8.6
		c0-1.854,1.506-3.359,3.362-3.359h8.313v4.121h-7.238v1.479h7.238v4.121h-7.238v1.477h7.238V15.636L109.482,15.636z"/>
	<path fill-rule="evenodd" clip-rule="evenodd" fill="#FFFFFF" d="M80.295,9.82c1.27-0.48,2.173-1.706,2.173-3.144V3.676
		c0-1.854-1.506-3.359-3.362-3.359h-9.014v15.319h4.437v-8.71l3.971,8.71h4.514L80.295,9.82L80.295,9.82z M78.187,5.904h-3.658
		V4.427h3.658V5.904L78.187,5.904z"/>
	<path fill-rule="evenodd" clip-rule="evenodd" fill="#FFFFFF" d="M113.2,0.999c-0.296-0.294-0.653-0.441-1.073-0.441
		c-0.417,0-0.772,0.147-1.067,0.441c-0.296,0.296-0.443,0.651-0.443,1.067c0,0.421,0.146,0.779,0.438,1.074
		c0.296,0.298,0.652,0.446,1.072,0.446s0.777-0.148,1.073-0.446c0.296-0.297,0.443-0.655,0.443-1.074
		C113.644,1.649,113.496,1.293,113.2,0.999L113.2,0.999z M113.05,2.994c-0.254,0.257-0.562,0.384-0.923,0.384
		c-0.362,0-0.67-0.127-0.922-0.384c-0.253-0.255-0.379-0.564-0.379-0.928c0-0.36,0.127-0.667,0.38-0.922
		c0.255-0.256,0.563-0.383,0.921-0.383c0.36,0,0.668,0.127,0.923,0.383c0.253,0.255,0.38,0.562,0.38,0.922
		C113.43,2.43,113.303,2.739,113.05,2.994L113.05,2.994z"/>
	<path fill-rule="evenodd" clip-rule="evenodd" fill="#FFFFFF" d="M112.802,2.873c-0.007-0.014-0.012-0.043-0.015-0.087
		c-0.002-0.044-0.003-0.085-0.003-0.124V2.541c0-0.084-0.031-0.17-0.092-0.258s-0.156-0.143-0.287-0.163
		c0.104-0.017,0.184-0.043,0.242-0.081c0.108-0.069,0.162-0.179,0.162-0.327c0-0.209-0.085-0.349-0.257-0.421
		c-0.097-0.039-0.248-0.06-0.455-0.06h-0.582v1.662h0.293V2.237h0.231c0.155,0,0.265,0.019,0.326,0.054
		c0.104,0.063,0.156,0.189,0.156,0.382v0.132l0.008,0.054c0.001,0.007,0.002,0.013,0.003,0.019c0.002,0.006,0.003,0.011,0.005,0.017
		h0.274L112.802,2.873L112.802,2.873z M112.352,1.996c-0.062,0.024-0.154,0.036-0.278,0.036h-0.265V1.43h0.25
		c0.163,0,0.28,0.021,0.354,0.063c0.074,0.041,0.11,0.123,0.11,0.243C112.522,1.863,112.466,1.95,112.352,1.996L112.352,1.996z"/>
</g>
<g>
</g>
<g>
</g>
<g>
</g>
<g>
</g>
<g>
</g>
<g>
</g>
<g>
</g>
<g>
</g>
<g>
</g>
<g>
</g>
<g>
</g>
<g>
</g>
<g>
</g>
<g>
</g>
<g>
</g>
</svg>
