<?xml version="1.0" encoding="utf-8"?>
<!-- Generator: Adobe Illustrator 16.0.3, SVG Export Plug-In . SVG Version: 6.00 Build 0)  -->
<!DOCTYPE svg PUBLIC "-//W3C//DTD SVG 1.1//EN" "http://www.w3.org/Graphics/SVG/1.1/DTD/svg11.dtd">
<svg version="1.1" id="Calque_1" xmlns="http://www.w3.org/2000/svg" xmlns:xlink="http://www.w3.org/1999/xlink" x="0px" y="0px"
	 width="167.777px" height="167.778px" viewBox="0 0 167.777 167.778" enable-background="new 0 0 167.777 167.778"
	 xml:space="preserve">
<circle fill="#FFFFFF" cx="83.889" cy="83.889" r="83.889"/>
<path fill-rule="evenodd" clip-rule="evenodd" fill="#1D1D1B" d="M83.755,7.211c42.77,0,77.69,34.273,77.69,76.107
	c0,41.905-34.92,76.106-77.69,76.106c-42.77,0-77.69-34.201-77.69-76.106C6.065,41.484,40.986,7.211,83.755,7.211L83.755,7.211z
	 M83.755,6.419c-43.201,0-78.554,34.562-78.554,76.899c0,42.336,35.353,76.897,78.554,76.897c43.202,0,78.554-34.561,78.554-76.897
	C162.31,40.98,126.957,6.419,83.755,6.419L83.755,6.419z"/>
<polygon fill-rule="evenodd" clip-rule="evenodd" fill="#1D1D1B" points="53.874,119.535 83.18,100.814 112.412,119.535 
	102.188,87.061 128.828,68.269 95.491,68.269 83.18,32.34 70.939,68.269 37.53,68.269 64.243,87.061 53.874,119.535 "/>
<path fill-rule="evenodd" clip-rule="evenodd" fill="#1D1D1B" d="M98.155,10.739c0,0,1.225,0.144,2.305,0.504
	c0.216,0.072,0.432-0.072,0.504-0.288c0.071-0.216,0-0.432-0.288-0.504c-1.079-0.361-2.304-0.576-2.376-0.576
	c-0.217-0.073-0.432,0.072-0.504,0.36C97.796,10.452,97.939,10.667,98.155,10.739L98.155,10.739z"/>
<path fill-rule="evenodd" clip-rule="evenodd" fill="#1D1D1B" d="M103.916,15.636c0.072,0,1.225,0.288,2.232,0.647
	c0.216,0.145,0.504,0,0.576-0.216c0.07-0.216-0.072-0.504-0.288-0.576c-1.009-0.432-2.232-0.72-2.304-0.72
	c-0.217-0.072-0.434,0.072-0.504,0.288C103.557,15.275,103.699,15.563,103.916,15.636L103.916,15.636z"/>
<path fill-rule="evenodd" clip-rule="evenodd" fill="#1D1D1B" d="M108.596,17.147c0,0,1.152,0.432,2.161,0.864
	c0.216,0.144,0.503,0,0.575-0.216c0.072-0.216,0-0.432-0.217-0.576c-1.008-0.504-2.159-0.864-2.23-0.864
	c-0.217-0.072-0.505,0.072-0.505,0.288C108.235,16.859,108.38,17.075,108.596,17.147L108.596,17.147z"/>
<path fill-rule="evenodd" clip-rule="evenodd" fill="#1D1D1B" d="M113.204,19.092c0,0,1.08,0.431,2.017,1.007
	c0.216,0.072,0.503,0,0.647-0.215c0.071-0.145,0-0.433-0.216-0.576c-0.937-0.576-2.088-1.008-2.16-1.008
	c-0.217-0.144-0.504,0-0.576,0.216C112.845,18.731,112.988,19.019,113.204,19.092L113.204,19.092z"/>
<path fill-rule="evenodd" clip-rule="evenodd" fill="#1D1D1B" d="M117.596,21.323c0,0,1.08,0.504,2.017,1.081
	c0.216,0.144,0.433,0.144,0.575-0.072c0.145-0.216,0.072-0.504-0.143-0.648c-0.937-0.576-2.017-1.152-2.089-1.152
	c-0.216-0.144-0.433,0-0.575,0.144C117.309,20.964,117.381,21.179,117.596,21.323L117.596,21.323z"/>
<path fill-rule="evenodd" clip-rule="evenodd" fill="#1D1D1B" d="M121.845,23.771c0,0.072,1.008,0.648,1.944,1.296
	c0.144,0.145,0.432,0.145,0.575-0.072s0.072-0.432-0.071-0.576c-0.937-0.72-1.945-1.368-2.017-1.368
	c-0.216-0.145-0.432-0.072-0.575,0.144C121.557,23.412,121.629,23.7,121.845,23.771L121.845,23.771z"/>
<path fill-rule="evenodd" clip-rule="evenodd" fill="#1D1D1B" d="M125.949,26.651c0,0,0.936,0.648,1.799,1.368
	c0.145,0.145,0.433,0.145,0.576-0.071c0.217-0.145,0.145-0.433,0-0.576c-0.863-0.792-1.871-1.44-1.943-1.44
	c-0.145-0.144-0.432-0.144-0.576,0.072C125.66,26.22,125.732,26.508,125.949,26.651L125.949,26.651z"/>
<path fill-rule="evenodd" clip-rule="evenodd" fill="#1D1D1B" d="M129.765,29.676c0,0,0.937,0.792,1.729,1.584
	c0.144,0.144,0.432,0.144,0.575,0c0.217-0.216,0.217-0.432,0-0.647c-0.791-0.792-1.728-1.584-1.728-1.584
	c-0.216-0.145-0.505-0.145-0.647,0.072C129.549,29.244,129.549,29.532,129.765,29.676L129.765,29.676z"/>
<path fill-rule="evenodd" clip-rule="evenodd" fill="#1D1D1B" d="M133.438,33.06c0,0,0.863,0.792,1.584,1.656
	c0.144,0.144,0.432,0.216,0.576,0.072c0.215-0.215,0.215-0.504,0.072-0.647c-0.721-0.937-1.657-1.728-1.729-1.728
	c-0.145-0.144-0.432-0.144-0.576,0C133.221,32.627,133.221,32.844,133.438,33.06L133.438,33.06z"/>
<path fill-rule="evenodd" clip-rule="evenodd" fill="#1D1D1B" d="M136.749,36.66c0.072,0,0.863,0.864,1.513,1.728
	c0.143,0.144,0.431,0.216,0.647,0.072c0.144-0.144,0.216-0.432,0.072-0.576c-0.647-0.936-1.513-1.8-1.585-1.872
	c-0.143-0.145-0.432-0.145-0.575,0C136.604,36.156,136.604,36.444,136.749,36.66L136.749,36.66z"/>
<path fill-rule="evenodd" clip-rule="evenodd" fill="#1D1D1B" d="M139.917,40.477c0,0,0.792,0.935,1.368,1.8
	c0.145,0.215,0.359,0.288,0.576,0.144c0.216-0.144,0.287-0.36,0.144-0.576c-0.575-0.937-1.368-1.944-1.44-1.944
	c-0.144-0.216-0.431-0.216-0.575-0.073C139.772,39.972,139.772,40.26,139.917,40.477L139.917,40.477z"/>
<path fill-rule="evenodd" clip-rule="evenodd" fill="#1D1D1B" d="M142.797,44.508c0,0,0.721,0.936,1.224,1.872
	c0.145,0.216,0.361,0.288,0.577,0.216c0.216-0.144,0.287-0.36,0.216-0.576c-0.576-1.008-1.296-2.016-1.368-2.087
	c-0.145-0.144-0.36-0.216-0.576-0.072S142.653,44.292,142.797,44.508L142.797,44.508z"/>
<path fill-rule="evenodd" clip-rule="evenodd" fill="#1D1D1B" d="M145.389,48.685c0,0,0.576,1.008,1.009,2.016
	c0.144,0.216,0.36,0.36,0.647,0.216c0.145-0.072,0.288-0.36,0.217-0.576c-0.504-1.008-1.152-2.088-1.152-2.088
	c-0.145-0.216-0.432-0.288-0.576-0.144C145.317,48.252,145.245,48.468,145.389,48.685L145.389,48.685z"/>
<path fill-rule="evenodd" clip-rule="evenodd" fill="#1D1D1B" d="M147.621,53.077c0,0,0.576,1.08,0.937,2.088
	c0.071,0.216,0.36,0.36,0.505,0.288c0.287-0.144,0.358-0.36,0.287-0.576c-0.359-1.08-0.937-2.16-0.937-2.232
	c-0.144-0.144-0.432-0.288-0.575-0.144C147.549,52.644,147.478,52.861,147.621,53.077L147.621,53.077z"/>
<path fill-rule="evenodd" clip-rule="evenodd" fill="#1D1D1B" d="M149.565,57.613c0,0,0.505,1.08,0.792,2.16
	c0.072,0.216,0.288,0.36,0.576,0.288c0.217-0.072,0.359-0.288,0.288-0.504c-0.36-1.152-0.864-2.232-0.864-2.305
	c-0.072-0.216-0.359-0.288-0.576-0.216C149.565,57.109,149.493,57.397,149.565,57.613L149.565,57.613z"/>
<path fill-rule="evenodd" clip-rule="evenodd" fill="#1D1D1B" d="M151.222,62.293c0,0,0.432,1.152,0.647,2.16
	c0,0.216,0.217,0.359,0.504,0.359c0.217-0.072,0.36-0.288,0.36-0.504c-0.288-1.152-0.647-2.304-0.72-2.304
	c-0.072-0.288-0.288-0.36-0.576-0.288C151.293,61.789,151.15,62.005,151.222,62.293L151.222,62.293z"/>
<path fill-rule="evenodd" clip-rule="evenodd" fill="#1D1D1B" d="M152.518,67.045c0,0,0.359,1.152,0.504,2.232
	c0,0.216,0.217,0.433,0.504,0.36c0.216-0.072,0.36-0.216,0.36-0.504c-0.216-1.152-0.504-2.304-0.504-2.375
	c-0.071-0.216-0.36-0.36-0.576-0.289C152.59,66.541,152.445,66.757,152.518,67.045L152.518,67.045z"/>
<path fill-rule="evenodd" clip-rule="evenodd" fill="#1D1D1B" d="M153.525,71.869c0,0,0.216,1.224,0.288,2.304
	c0,0.216,0.215,0.36,0.505,0.36c0.215,0,0.359-0.215,0.359-0.432c-0.072-1.152-0.359-2.376-0.359-2.448
	c0-0.216-0.218-0.36-0.505-0.288C153.598,71.365,153.453,71.653,153.525,71.869L153.525,71.869z"/>
<path fill-rule="evenodd" clip-rule="evenodd" fill="#1D1D1B" d="M154.174,76.765c0,0,0.145,1.224,0.145,2.304
	c0,0.216,0.144,0.432,0.432,0.432c0.216,0,0.431-0.215,0.431-0.432c0-1.152-0.215-2.376-0.215-2.448c0-0.216-0.216-0.36-0.433-0.36
	C154.246,76.261,154.101,76.549,154.174,76.765L154.174,76.765z"/>
<path fill-rule="evenodd" clip-rule="evenodd" fill="#1D1D1B" d="M154.462,81.662c0,0,0.071,1.224,0,2.16
	c-0.071,0.287,0.144,0.432,0.359,0.503c0.216,0,0.432-0.144,0.432-0.431c0.146-1.008,0-2.232,0-2.305
	c0-0.216-0.145-0.432-0.432-0.432C154.605,81.229,154.391,81.374,154.462,81.662L154.462,81.662z"/>
<path fill-rule="evenodd" clip-rule="evenodd" fill="#1D1D1B" d="M154.391,86.485c0,0,0,1.225-0.145,2.305
	c-0.072,0.215,0.072,0.432,0.359,0.504c0.216,0,0.432-0.145,0.503-0.432c0.145-1.081,0.145-2.305,0.145-2.377
	c0-0.216-0.216-0.433-0.432-0.433C154.533,86.052,154.391,86.269,154.391,86.485L154.391,86.485z"/>
<path fill-rule="evenodd" clip-rule="evenodd" fill="#1D1D1B" d="M153.957,91.381c0,0.072-0.071,1.223-0.287,2.305
	c-0.072,0.216,0.071,0.503,0.287,0.503c0.289,0.072,0.505-0.071,0.576-0.287c0.217-1.152,0.288-2.376,0.288-2.448
	c0-0.217-0.144-0.432-0.359-0.432C154.174,91.022,153.957,91.165,153.957,91.381L153.957,91.381z"/>
<path fill-rule="evenodd" clip-rule="evenodd" fill="#1D1D1B" d="M153.238,96.278c0,0-0.217,1.225-0.505,2.231
	c-0.072,0.288,0.072,0.504,0.288,0.575c0.289,0.072,0.504-0.071,0.576-0.287c0.288-1.08,0.503-2.304,0.503-2.376
	c0.073-0.216-0.144-0.431-0.359-0.503C153.525,95.918,153.311,96.062,153.238,96.278L153.238,96.278z"/>
<path fill-rule="evenodd" clip-rule="evenodd" fill="#1D1D1B" d="M152.158,101.103c0,0-0.289,1.151-0.648,2.229
	c-0.072,0.217,0.071,0.434,0.287,0.506c0.217,0.145,0.433,0,0.576-0.217c0.36-1.08,0.648-2.232,0.648-2.305
	c0-0.214-0.145-0.432-0.36-0.503C152.445,100.742,152.229,100.885,152.158,101.103L152.158,101.103z"/>
<path fill-rule="evenodd" clip-rule="evenodd" fill="#1D1D1B" d="M150.717,105.854c0,0-0.287,1.152-0.791,2.16
	c-0.072,0.217,0,0.432,0.287,0.576c0.145,0.072,0.433,0,0.504-0.217c0.505-1.079,0.864-2.232,0.864-2.303
	c0.072-0.217-0.071-0.434-0.288-0.506C151.006,105.493,150.789,105.637,150.717,105.854L150.717,105.854z"/>
<path fill-rule="evenodd" clip-rule="evenodd" fill="#1D1D1B" d="M148.99,110.461c0,0-0.433,1.152-0.938,2.088
	c-0.071,0.217,0,0.506,0.217,0.578c0.216,0.142,0.504,0.071,0.576-0.146c0.504-1.081,0.936-2.16,0.936-2.231
	c0.072-0.217,0-0.432-0.216-0.576C149.35,110.102,149.063,110.247,148.99,110.461L148.99,110.461z"/>
<path fill-rule="evenodd" clip-rule="evenodd" fill="#1D1D1B" d="M146.973,114.926c-0.071,0-0.504,1.152-1.08,2.088
	c-0.143,0.145-0.071,0.433,0.145,0.577c0.145,0.143,0.432,0.07,0.576-0.145c0.576-1.009,1.08-2.088,1.08-2.159
	c0.145-0.218,0.072-0.434-0.216-0.506C147.333,114.639,147.045,114.711,146.973,114.926L146.973,114.926z"/>
<path fill-rule="evenodd" clip-rule="evenodd" fill="#1D1D1B" d="M144.598,119.319c0,0-0.577,1.008-1.225,1.943
	c-0.145,0.145-0.145,0.433,0.072,0.576s0.504,0.071,0.575-0.071c0.721-0.937,1.297-2.018,1.297-2.088
	c0.144-0.217,0.071-0.433-0.145-0.577C144.957,119.03,144.67,119.102,144.598,119.319L144.598,119.319z"/>
<path fill-rule="evenodd" clip-rule="evenodd" fill="#1D1D1B" d="M141.933,123.422c0,0.072-0.647,1.08-1.368,1.873
	c-0.144,0.215-0.144,0.432,0.072,0.575c0.145,0.216,0.433,0.145,0.576,0c0.72-0.864,1.44-1.944,1.44-1.944
	c0.144-0.216,0.071-0.504-0.144-0.576C142.293,123.208,142.077,123.278,141.933,123.422L141.933,123.422z"/>
<path fill-rule="evenodd" clip-rule="evenodd" fill="#1D1D1B" d="M138.981,127.383c0,0.072-0.72,1.007-1.441,1.799
	c-0.216,0.145-0.216,0.434,0,0.576c0.145,0.217,0.433,0.217,0.577,0c0.792-0.791,1.512-1.8,1.512-1.871
	c0.144-0.145,0.144-0.432-0.072-0.576C139.342,127.167,139.125,127.239,138.981,127.383L138.981,127.383z"/>
<path fill-rule="evenodd" clip-rule="evenodd" fill="#1D1D1B" d="M135.741,131.127c0,0.07-0.792,0.936-1.585,1.727
	c-0.144,0.145-0.215,0.432,0,0.576c0.145,0.217,0.434,0.217,0.576,0c0.865-0.792,1.656-1.654,1.656-1.727
	c0.216-0.145,0.145-0.434,0-0.576C136.173,130.911,135.885,130.983,135.741,131.127L135.741,131.127z"/>
<path fill-rule="evenodd" clip-rule="evenodd" fill="#1D1D1B" d="M132.285,134.655c0,0-0.864,0.863-1.729,1.584
	c-0.145,0.145-0.216,0.36-0.072,0.576c0.145,0.216,0.432,0.216,0.647,0.072c0.864-0.721,1.729-1.584,1.802-1.584
	c0.143-0.217,0.143-0.433,0-0.648C132.717,134.511,132.43,134.511,132.285,134.655L132.285,134.655z"/>
<path fill-rule="evenodd" clip-rule="evenodd" fill="#1D1D1B" d="M128.541,137.895c0,0-0.864,0.864-1.801,1.439
	c-0.144,0.145-0.215,0.432-0.072,0.576c0.145,0.217,0.361,0.289,0.576,0.145c0.937-0.648,1.873-1.439,1.945-1.513
	c0.143-0.145,0.143-0.432,0-0.575C129.045,137.75,128.756,137.75,128.541,137.895L128.541,137.895z"/>
<path fill-rule="evenodd" clip-rule="evenodd" fill="#1D1D1B" d="M124.652,140.919c0,0-0.936,0.792-1.871,1.296
	c-0.217,0.145-0.289,0.432-0.145,0.575c0.072,0.217,0.359,0.289,0.576,0.145c1.008-0.575,1.943-1.296,1.943-1.296
	c0.217-0.145,0.289-0.432,0.145-0.647C125.156,140.847,124.869,140.775,124.652,140.919L124.652,140.919z"/>
<path fill-rule="evenodd" clip-rule="evenodd" fill="#1D1D1B" d="M120.549,143.655c-0.072,0-1.008,0.648-2.017,1.152
	c-0.216,0.071-0.288,0.359-0.144,0.576c0.072,0.215,0.287,0.287,0.576,0.215c1.008-0.503,2.016-1.223,2.016-1.223
	c0.216-0.145,0.287-0.432,0.144-0.648C120.98,143.583,120.692,143.51,120.549,143.655L120.549,143.655z"/>
<path fill-rule="evenodd" clip-rule="evenodd" fill="#1D1D1B" d="M116.229,146.104c0,0-1.008,0.575-2.088,0.935
	c-0.216,0.145-0.288,0.361-0.216,0.577c0.071,0.215,0.359,0.359,0.575,0.287c1.08-0.431,2.16-1.079,2.16-1.079
	c0.216-0.145,0.288-0.36,0.145-0.577C116.732,146.032,116.444,145.959,116.229,146.104L116.229,146.104z"/>
<path fill-rule="evenodd" clip-rule="evenodd" fill="#1D1D1B" d="M112.34,148.624c0-0.217,0-0.287-0.145-0.432
	c-0.215-0.072-0.358,0-0.647,0.145c-0.433,0.143-1.152,0.503-1.871,0.719c-0.288,0.071-0.361,0.288-0.288,0.576
	c0.071,0.215,0.288,0.287,0.504,0.215c0.792-0.215,1.583-0.575,2.016-0.72c0.072-0.071,0.145-0.143,0.145-0.143
	c-0.145,0.071-0.216,0.071-0.36,0c-0.145-0.145-0.145-0.288-0.145-0.36c0,0.216,0.145,0.36,0.36,0.36
	C112.195,148.984,112.34,148.839,112.34,148.624L112.34,148.624z"/>
<path fill-rule="evenodd" clip-rule="evenodd" fill="#1D1D1B" d="M107.156,149.991c0,0-1.152,0.434-2.16,0.721
	c-0.217,0.072-0.359,0.288-0.359,0.505c0.071,0.287,0.359,0.431,0.576,0.358c1.079-0.358,2.231-0.791,2.231-0.791
	c0.288-0.072,0.36-0.359,0.288-0.576C107.588,149.991,107.372,149.918,107.156,149.991L107.156,149.991z"/>
<path fill-rule="evenodd" clip-rule="evenodd" fill="#1D1D1B" d="M102.477,151.503c0,0-1.153,0.288-2.233,0.503
	c-0.215,0.072-0.432,0.289-0.359,0.506c0,0.215,0.288,0.432,0.504,0.359c1.152-0.217,2.304-0.576,2.304-0.576
	c0.289-0.072,0.361-0.289,0.289-0.576C102.908,151.503,102.691,151.359,102.477,151.503L102.477,151.503z"/>
<path fill-rule="evenodd" clip-rule="evenodd" fill="#1D1D1B" d="M97.651,152.584c0,0-1.152,0.287-2.232,0.432
	c-0.287,0-0.432,0.216-0.432,0.503c0.072,0.216,0.289,0.36,0.504,0.36c1.152-0.145,2.305-0.433,2.377-0.433
	c0.215-0.07,0.359-0.287,0.287-0.503C98.155,152.655,97.868,152.584,97.651,152.584L97.651,152.584z"/>
<path fill-rule="evenodd" clip-rule="evenodd" fill="#1D1D1B" d="M92.755,153.376c0,0-1.151,0.215-2.231,0.287
	c-0.288,0-0.433,0.216-0.433,0.433c0,0.215,0.217,0.432,0.433,0.432c1.151-0.072,2.376-0.289,2.376-0.289
	c0.289,0,0.432-0.215,0.359-0.504C93.259,153.519,93.044,153.376,92.755,153.376L92.755,153.376z"/>
<path fill-rule="evenodd" clip-rule="evenodd" fill="#1D1D1B" d="M87.859,153.879c0,0-1.224,0.145-2.231,0.072
	c-0.217,0-0.433,0.145-0.433,0.432c-0.071,0.217,0.145,0.432,0.433,0.432c1.08,0,2.303-0.07,2.375-0.07
	c0.216-0.072,0.36-0.217,0.36-0.506C88.291,154.024,88.147,153.879,87.859,153.879L87.859,153.879z"/>
<path fill-rule="evenodd" clip-rule="evenodd" fill="#1D1D1B" d="M83.036,154.024c0,0-1.225,0-2.305-0.145
	c-0.216,0-0.432,0.145-0.432,0.432c-0.072,0.217,0.143,0.434,0.359,0.434c1.152,0.143,2.377,0.07,2.377,0.07
	c0.287,0,0.431-0.143,0.431-0.432C83.467,154.167,83.251,153.952,83.036,154.024L83.036,154.024z"/>
<path fill-rule="evenodd" clip-rule="evenodd" fill="#1D1D1B" d="M78.067,153.735c0,0-1.152,0-2.232-0.216
	c-0.216-0.072-0.433,0.072-0.504,0.36c-0.072,0.217,0.072,0.432,0.36,0.504c1.151,0.217,2.304,0.217,2.376,0.217
	c0.215,0.072,0.432-0.145,0.432-0.434C78.571,153.952,78.355,153.735,78.067,153.735L78.067,153.735z"/>
<path fill-rule="evenodd" clip-rule="evenodd" fill="#1D1D1B" d="M73.171,153.232c0,0-1.152-0.144-2.232-0.433
	c-0.216-0.072-0.432,0.072-0.504,0.289c-0.072,0.288,0.072,0.503,0.288,0.575c1.151,0.216,2.305,0.36,2.376,0.36
	c0.216,0.072,0.432-0.145,0.504-0.36C73.604,153.447,73.459,153.232,73.171,153.232L73.171,153.232z"/>
<path fill-rule="evenodd" clip-rule="evenodd" fill="#1D1D1B" d="M68.347,152.295c0,0-1.151-0.217-2.232-0.576
	c-0.216-0.072-0.503,0.072-0.503,0.287c-0.145,0.217,0,0.506,0.216,0.578c1.151,0.359,2.303,0.575,2.375,0.575
	c0.216,0,0.432-0.144,0.503-0.36C68.779,152.584,68.635,152.295,68.347,152.295L68.347,152.295z"/>
<path fill-rule="evenodd" clip-rule="evenodd" fill="#1D1D1B" d="M63.523,151c0,0-1.152-0.288-2.16-0.647
	c-0.216-0.145-0.432,0-0.504,0.215c-0.143,0.217,0,0.505,0.216,0.577c1.081,0.431,2.232,0.72,2.305,0.72
	c0.216,0.07,0.432-0.072,0.503-0.36C63.955,151.287,63.811,151.072,63.523,151L63.523,151z"/>
<path fill-rule="evenodd" clip-rule="evenodd" fill="#1D1D1B" d="M58.915,149.415c-0.072,0-1.152-0.359-2.161-0.791
	c-0.215-0.145-0.432-0.072-0.576,0.145c-0.073,0.216,0,0.503,0.216,0.575c1.008,0.575,2.16,0.937,2.232,0.937
	c0.215,0.072,0.503-0.072,0.503-0.289C59.275,149.774,59.131,149.487,58.915,149.415L58.915,149.415z"/>
<path fill-rule="evenodd" clip-rule="evenodd" fill="#1D1D1B" d="M54.379,147.543c-0.072,0-1.153-0.505-2.089-1.008
	c-0.215-0.072-0.504-0.072-0.647,0.144c-0.072,0.217,0,0.504,0.216,0.647c1.008,0.504,2.088,1.01,2.16,1.01
	c0.216,0.143,0.432,0,0.576-0.217C54.666,147.903,54.522,147.686,54.379,147.543L54.379,147.543z"/>
<path fill-rule="evenodd" clip-rule="evenodd" fill="#1D1D1B" d="M49.915,145.312c0,0-1.08-0.505-2.016-1.081
	c-0.216-0.143-0.433-0.143-0.576,0.072c-0.144,0.217-0.072,0.504,0.144,0.647c0.937,0.575,2.017,1.153,2.089,1.153
	c0.216,0.143,0.432,0,0.576-0.145C50.202,145.67,50.13,145.456,49.915,145.312L49.915,145.312z"/>
<path fill-rule="evenodd" clip-rule="evenodd" fill="#1D1D1B" d="M45.666,142.863c0-0.072-1.008-0.647-1.944-1.296
	c-0.144-0.145-0.432-0.145-0.576,0.072s-0.072,0.432,0.072,0.576c0.936,0.72,1.944,1.367,2.016,1.367
	c0.216,0.145,0.504,0.072,0.575-0.145C45.955,143.223,45.882,142.935,45.666,142.863L45.666,142.863z"/>
<path fill-rule="evenodd" clip-rule="evenodd" fill="#1D1D1B" d="M41.634,139.983c0,0-1.008-0.648-1.873-1.367
	c-0.144-0.146-0.431-0.146-0.576,0.071c-0.144,0.145-0.144,0.432,0.073,0.575c0.792,0.793,1.8,1.44,1.872,1.44
	c0.216,0.145,0.432,0.145,0.576-0.072C41.85,140.417,41.85,140.127,41.634,139.983L41.634,139.983z"/>
<path fill-rule="evenodd" clip-rule="evenodd" fill="#1D1D1B" d="M37.746,136.958c0,0-0.936-0.792-1.656-1.583
	c-0.216-0.145-0.504-0.145-0.648,0c-0.144,0.143-0.216,0.432,0,0.648c0.792,0.791,1.729,1.584,1.8,1.584
	c0.144,0.143,0.432,0.143,0.576-0.072C37.962,137.319,37.962,137.102,37.746,136.958L37.746,136.958z"/>
<path fill-rule="evenodd" clip-rule="evenodd" fill="#1D1D1B" d="M34.146,133.575c-0.072,0-0.936-0.793-1.656-1.656
	c-0.144-0.143-0.36-0.215-0.576,0c-0.215,0.145-0.215,0.433-0.071,0.576c0.792,0.863,1.656,1.729,1.656,1.729
	c0.216,0.144,0.504,0.144,0.648,0C34.29,134.008,34.29,133.792,34.146,133.575L34.146,133.575z"/>
<path fill-rule="evenodd" clip-rule="evenodd" fill="#1D1D1B" d="M30.401,130.766c0.217,0,0.361-0.144,0.432-0.287
	c0.072-0.216-0.071-0.432-0.215-0.648c-0.289-0.287-0.865-0.936-1.369-1.584c-0.144-0.216-0.36-0.216-0.576-0.071
	c-0.215,0.071-0.288,0.358-0.144,0.575c0.504,0.721,1.152,1.368,1.368,1.656c0.072,0.072,0.145,0.144,0.145,0.144
	c-0.072-0.071-0.072-0.287,0-0.432c0.072-0.144,0.216-0.216,0.359-0.216c-0.215,0-0.432,0.145-0.432,0.433
	C29.97,130.55,30.186,130.766,30.401,130.766L30.401,130.766z"/>
<path fill-rule="evenodd" clip-rule="evenodd" fill="#1D1D1B" d="M27.593,126.158c0,0-0.792-0.935-1.368-1.872
	c-0.072-0.144-0.36-0.216-0.576-0.072c-0.216,0.072-0.288,0.361-0.145,0.576c0.648,0.938,1.368,1.873,1.44,1.945
	c0.144,0.215,0.432,0.215,0.576,0.072C27.738,126.663,27.738,126.374,27.593,126.158L27.593,126.158z"/>
<path fill-rule="evenodd" clip-rule="evenodd" fill="#1D1D1B" d="M24.714,122.125c0,0-0.648-0.936-1.224-1.943
	c-0.072-0.144-0.36-0.217-0.576-0.144c-0.216,0.144-0.288,0.433-0.144,0.575c0.576,1.009,1.224,2.016,1.224,2.088
	c0.144,0.145,0.432,0.217,0.648,0.072S24.858,122.342,24.714,122.125L24.714,122.125z"/>
<path fill-rule="evenodd" clip-rule="evenodd" fill="#1D1D1B" d="M22.193,117.951c0,0-0.648-1.009-1.08-2.017
	c-0.144-0.216-0.359-0.36-0.576-0.216c-0.216,0.072-0.36,0.36-0.216,0.575c0.432,1.009,1.08,2.088,1.08,2.088
	c0.144,0.217,0.432,0.289,0.647,0.145C22.193,118.381,22.265,118.167,22.193,117.951L22.193,117.951z"/>
<path fill-rule="evenodd" clip-rule="evenodd" fill="#1D1D1B" d="M19.889,113.558c0,0-0.576-1.079-0.936-2.088
	c-0.072-0.216-0.36-0.359-0.576-0.289c-0.216,0.145-0.288,0.361-0.216,0.577c0.36,1.08,0.936,2.16,0.936,2.232
	c0.144,0.143,0.432,0.287,0.576,0.143C19.889,114.061,20.034,113.774,19.889,113.558L19.889,113.558z"/>
<path fill-rule="evenodd" clip-rule="evenodd" fill="#1D1D1B" d="M17.945,109.022c0,0-0.504-1.08-0.792-2.16
	c-0.072-0.215-0.288-0.359-0.504-0.287c-0.288,0.072-0.432,0.287-0.36,0.503c0.36,1.153,0.864,2.232,0.864,2.305
	c0.072,0.216,0.36,0.287,0.576,0.216C17.945,109.526,18.018,109.238,17.945,109.022L17.945,109.022z"/>
<path fill-rule="evenodd" clip-rule="evenodd" fill="#1D1D1B" d="M16.289,104.342c0,0-0.432-1.152-0.648-2.16
	c-0.072-0.217-0.288-0.359-0.504-0.359c-0.216,0.07-0.36,0.287-0.36,0.504c0.288,1.15,0.72,2.304,0.72,2.304
	c0.071,0.216,0.36,0.359,0.576,0.287C16.289,104.846,16.361,104.559,16.289,104.342L16.289,104.342z"/>
<path fill-rule="evenodd" clip-rule="evenodd" fill="#1D1D1B" d="M14.993,99.59c0,0-0.36-1.152-0.504-2.232
	c0-0.217-0.215-0.434-0.432-0.361c-0.288,0-0.432,0.217-0.36,0.506c0.144,1.151,0.432,2.303,0.432,2.303
	c0.072,0.289,0.359,0.434,0.576,0.361C14.921,100.094,15.065,99.805,14.993,99.59L14.993,99.59z"/>
<path fill-rule="evenodd" clip-rule="evenodd" fill="#1D1D1B" d="M13.985,94.764c0,0-0.215-1.223-0.288-2.302
	c0-0.217-0.216-0.361-0.504-0.361c-0.216,0-0.36,0.217-0.36,0.432c0.072,1.153,0.36,2.377,0.36,2.448
	c0,0.217,0.216,0.361,0.504,0.289C13.913,95.27,14.057,94.981,13.985,94.764L13.985,94.764z"/>
<path fill-rule="evenodd" clip-rule="evenodd" fill="#1D1D1B" d="M13.409,89.87c0,0-0.216-1.225-0.216-2.305
	c0-0.215-0.144-0.432-0.432-0.432c-0.216,0-0.36,0.217-0.36,0.432c0,1.152,0.144,2.376,0.144,2.376c0,0.289,0.216,0.434,0.504,0.434
	C13.265,90.302,13.409,90.086,13.409,89.87L13.409,89.87z"/>
<path fill-rule="evenodd" clip-rule="evenodd" fill="#1D1D1B" d="M13.121,84.901c0,0-0.072-1.151-0.072-2.16
	c0.072-0.288-0.145-0.504-0.36-0.504c-0.288,0-0.432,0.216-0.432,0.432c-0.072,1.08,0,2.304,0,2.304
	c0,0.217,0.216,0.432,0.432,0.432S13.121,85.19,13.121,84.901L13.121,84.901z"/>
<path fill-rule="evenodd" clip-rule="evenodd" fill="#1D1D1B" d="M13.121,80.077c0,0,0-1.152,0.216-2.232
	c0-0.216-0.144-0.432-0.36-0.504c-0.288,0-0.504,0.145-0.504,0.361c-0.216,1.152-0.216,2.375-0.216,2.375
	c0,0.289,0.216,0.432,0.432,0.432C12.977,80.509,13.121,80.366,13.121,80.077L13.121,80.077z"/>
<path fill-rule="evenodd" clip-rule="evenodd" fill="#1D1D1B" d="M13.553,75.181c0,0,0.072-1.152,0.288-2.232
	c0.072-0.216-0.072-0.504-0.288-0.504c-0.288-0.072-0.504,0.072-0.504,0.288c-0.288,1.152-0.36,2.376-0.36,2.376
	c0,0.288,0.144,0.504,0.36,0.504C13.337,75.613,13.553,75.469,13.553,75.181L13.553,75.181z"/>
<path fill-rule="evenodd" clip-rule="evenodd" fill="#1D1D1B" d="M14.273,70.357c0,0,0.215-1.224,0.504-2.304
	c0.072-0.216-0.072-0.432-0.289-0.504c-0.288-0.072-0.504,0.072-0.576,0.288c-0.288,1.08-0.504,2.304-0.504,2.375
	c0,0.216,0.144,0.504,0.432,0.504C14.057,70.717,14.273,70.573,14.273,70.357L14.273,70.357z"/>
<path fill-rule="evenodd" clip-rule="evenodd" fill="#1D1D1B" d="M15.354,65.533c0,0,0.288-1.152,0.648-2.232
	c0.072-0.216-0.072-0.503-0.289-0.576c-0.215-0.072-0.432,0.073-0.503,0.289c-0.432,1.08-0.648,2.304-0.721,2.304
	c0,0.216,0.145,0.433,0.361,0.504C15.065,65.893,15.281,65.75,15.354,65.533L15.354,65.533z"/>
<path fill-rule="evenodd" clip-rule="evenodd" fill="#1D1D1B" d="M16.793,60.781c0,0,0.36-1.152,0.792-2.16
	c0.072-0.216,0-0.504-0.216-0.577c-0.216-0.071-0.504,0-0.576,0.216c-0.504,1.08-0.864,2.232-0.864,2.304
	c-0.072,0.216,0.072,0.432,0.288,0.504C16.505,61.141,16.721,60.997,16.793,60.781L16.793,60.781z"/>
<path fill-rule="evenodd" clip-rule="evenodd" fill="#1D1D1B" d="M18.521,56.172c0,0,0.432-1.151,0.936-2.087
	c0.072-0.216,0-0.504-0.216-0.648c-0.217-0.072-0.432,0-0.576,0.216c-0.504,1.008-0.936,2.16-0.936,2.232
	c-0.072,0.216,0,0.432,0.216,0.576C18.162,56.533,18.449,56.389,18.521,56.172L18.521,56.172z"/>
<path fill-rule="evenodd" clip-rule="evenodd" fill="#1D1D1B" d="M20.538,51.708c0.072,0,0.576-1.152,1.08-2.088
	c0.144-0.144,0.072-0.432-0.145-0.576c-0.216-0.144-0.432-0.072-0.576,0.145c-0.576,0.936-1.08,2.088-1.08,2.16
	c-0.144,0.216-0.072,0.432,0.216,0.503C20.178,51.997,20.465,51.924,20.538,51.708L20.538,51.708z"/>
<path fill-rule="evenodd" clip-rule="evenodd" fill="#1D1D1B" d="M22.986,47.316c0,0,0.504-1.008,1.152-1.943
	c0.144-0.145,0.144-0.432-0.072-0.576c-0.217-0.145-0.504-0.072-0.576,0.072c-0.72,0.936-1.296,2.016-1.296,2.088
	c-0.144,0.216,0,0.504,0.217,0.576C22.554,47.604,22.841,47.533,22.986,47.316L22.986,47.316z"/>
<path fill-rule="evenodd" clip-rule="evenodd" fill="#1D1D1B" d="M25.578,43.141c0,0,0.648-1.008,1.368-1.8
	c0.144-0.216,0.144-0.504-0.072-0.648c-0.144-0.144-0.432-0.144-0.576,0.072c-0.72,0.864-1.368,1.944-1.439,1.944
	c-0.072,0.216-0.072,0.504,0.144,0.576C25.218,43.428,25.505,43.356,25.578,43.141L25.578,43.141z"/>
<path fill-rule="evenodd" clip-rule="evenodd" fill="#1D1D1B" d="M28.53,39.18c0,0,0.72-0.936,1.512-1.728
	c0.144-0.144,0.144-0.432,0-0.576c-0.216-0.216-0.432-0.216-0.648,0c-0.792,0.792-1.512,1.8-1.512,1.8
	c-0.144,0.216-0.144,0.504,0.072,0.648C28.098,39.468,28.386,39.396,28.53,39.18L28.53,39.18z"/>
<path fill-rule="evenodd" clip-rule="evenodd" fill="#1D1D1B" d="M31.77,35.436c0,0,0.792-0.864,1.584-1.656
	c0.216-0.144,0.216-0.432,0.072-0.576c-0.216-0.216-0.433-0.216-0.648,0c-0.864,0.721-1.656,1.656-1.656,1.729
	c-0.216,0.144-0.144,0.432,0,0.576C31.338,35.652,31.625,35.652,31.77,35.436L31.77,35.436z"/>
<path fill-rule="evenodd" clip-rule="evenodd" fill="#1D1D1B" d="M35.226,31.98c0,0,0.864-0.864,1.728-1.584
	c0.144-0.144,0.216-0.36,0.072-0.576c-0.144-0.216-0.432-0.216-0.576-0.072c-0.936,0.72-1.8,1.584-1.8,1.584
	c-0.216,0.216-0.216,0.432,0,0.648C34.794,32.124,35.082,32.124,35.226,31.98L35.226,31.98z"/>
<path fill-rule="evenodd" clip-rule="evenodd" fill="#1D1D1B" d="M38.97,28.668c0,0,0.864-0.792,1.8-1.368
	c0.216-0.144,0.216-0.432,0.145-0.648c-0.145-0.216-0.433-0.216-0.649-0.144c-0.935,0.719-1.872,1.512-1.872,1.512
	c-0.216,0.216-0.216,0.433-0.072,0.648C38.538,28.812,38.754,28.883,38.97,28.668L38.97,28.668z"/>
<path fill-rule="evenodd" clip-rule="evenodd" fill="#1D1D1B" d="M42.858,25.716c0,0,1.008-0.792,1.944-1.296
	c0.216-0.144,0.216-0.432,0.144-0.576c-0.144-0.216-0.432-0.288-0.576-0.216c-1.008,0.576-2.017,1.296-2.017,1.368
	c-0.216,0.144-0.216,0.432-0.072,0.576C42.426,25.788,42.642,25.859,42.858,25.716L42.858,25.716z"/>
<path fill-rule="evenodd" clip-rule="evenodd" fill="#1D1D1B" d="M46.962,22.979c0,0,1.007-0.648,2.016-1.152
	c0.216-0.072,0.288-0.36,0.216-0.576c-0.145-0.216-0.36-0.288-0.576-0.216c-1.08,0.504-2.088,1.225-2.088,1.225
	c-0.216,0.144-0.289,0.36-0.145,0.576C46.531,23.052,46.746,23.124,46.962,22.979L46.962,22.979z"/>
<path fill-rule="evenodd" clip-rule="evenodd" fill="#1D1D1B" d="M51.282,20.531c0,0,1.08-0.576,2.088-0.936
	c0.217-0.144,0.289-0.359,0.217-0.576c-0.072-0.215-0.361-0.359-0.576-0.288c-1.008,0.432-2.088,1.008-2.16,1.08
	c-0.216,0.072-0.288,0.36-0.144,0.576C50.851,20.604,51.066,20.675,51.282,20.531L51.282,20.531z"/>
<path fill-rule="evenodd" clip-rule="evenodd" fill="#1D1D1B" d="M55.747,18.443c0,0,1.079-0.504,2.16-0.864
	c0.216-0.072,0.359-0.289,0.216-0.576c0-0.216-0.288-0.288-0.505-0.216c-1.079,0.288-2.16,0.864-2.232,0.864
	c-0.215,0.144-0.288,0.36-0.215,0.576C55.315,18.443,55.53,18.516,55.747,18.443L55.747,18.443z"/>
<path fill-rule="evenodd" clip-rule="evenodd" fill="#1D1D1B" d="M60.354,16.644c0,0,1.153-0.433,2.16-0.72
	c0.289-0.072,0.361-0.288,0.361-0.504c-0.072-0.288-0.289-0.359-0.504-0.359c-1.152,0.288-2.304,0.72-2.304,0.792
	c-0.289,0.072-0.36,0.359-0.289,0.576C59.851,16.644,60.14,16.715,60.354,16.644L60.354,16.644z"/>
<path fill-rule="evenodd" clip-rule="evenodd" fill="#1D1D1B" d="M65.106,15.131c0,0,1.152-0.288,2.161-0.504
	c0.287-0.071,0.432-0.288,0.359-0.504c0-0.288-0.288-0.432-0.503-0.359c-1.08,0.216-2.304,0.575-2.304,0.575
	c-0.217,0.072-0.36,0.288-0.288,0.576C64.602,15.131,64.819,15.275,65.106,15.131L65.106,15.131z"/>
<path fill-rule="evenodd" clip-rule="evenodd" fill="#1D1D1B" d="M69.859,14.051c0,0,1.224-0.288,2.305-0.432
	c0.215,0,0.359-0.216,0.359-0.504c0-0.216-0.216-0.36-0.504-0.36c-1.151,0.144-2.305,0.432-2.305,0.432
	c-0.287,0.072-0.431,0.288-0.359,0.504C69.428,13.979,69.643,14.051,69.859,14.051L69.859,14.051z"/>
<path fill-rule="evenodd" clip-rule="evenodd" fill="#1D1D1B" d="M74.755,13.259c0,0,1.152-0.216,2.232-0.288
	c0.289,0,0.503-0.216,0.432-0.432c0-0.216-0.215-0.432-0.432-0.432c-1.152,0.072-2.377,0.288-2.377,0.288
	c-0.214,0-0.431,0.216-0.359,0.504C74.324,13.115,74.539,13.259,74.755,13.259L74.755,13.259z"/>
<path fill-rule="evenodd" clip-rule="evenodd" fill="#1D1D1B" d="M79.651,12.755c0,0,1.225-0.144,2.305-0.072
	c0.216,0,0.432-0.217,0.432-0.433c0-0.288-0.216-0.432-0.432-0.432c-1.152,0-2.305,0.072-2.376,0.072
	c-0.215,0.072-0.432,0.216-0.359,0.504C79.22,12.611,79.436,12.755,79.651,12.755L79.651,12.755z"/>
<path fill-rule="evenodd" clip-rule="evenodd" fill="#1D1D1B" d="M84.547,12.611c0,0,1.223,0,2.232,0.072
	c0.216,0.072,0.432-0.145,0.432-0.36c0.072-0.216-0.144-0.432-0.36-0.504c-1.08-0.072-2.303,0-2.375,0
	c-0.215,0-0.432,0.144-0.36,0.432C84.115,12.467,84.331,12.684,84.547,12.611L84.547,12.611z"/>
<path fill-rule="evenodd" clip-rule="evenodd" fill="#1D1D1B" d="M89.443,12.899c0,0,1.151,0,2.231,0.216
	c0.289,0,0.504-0.144,0.504-0.36c0.072-0.216-0.07-0.432-0.359-0.504c-1.151-0.216-2.304-0.216-2.376-0.216
	c-0.216-0.072-0.433,0.144-0.433,0.432C89.011,12.684,89.155,12.899,89.443,12.899L89.443,12.899z"/>
<path fill-rule="evenodd" clip-rule="evenodd" fill="#1D1D1B" d="M94.339,13.403c0,0,1.225,0.144,2.232,0.432
	c0.288,0,0.504-0.072,0.576-0.36c0-0.216-0.145-0.433-0.36-0.504c-1.08-0.288-2.304-0.36-2.376-0.36
	c-0.215-0.072-0.432,0.144-0.504,0.36C93.907,13.188,94.052,13.403,94.339,13.403L94.339,13.403z"/>
<path fill-rule="evenodd" clip-rule="evenodd" fill="#1D1D1B" d="M99.163,14.339c0.072,0,1.225,0.217,2.232,0.576
	c0.216,0.072,0.505-0.071,0.505-0.288c0.145-0.216,0-0.504-0.217-0.576c-1.08-0.36-2.304-0.576-2.376-0.576
	c-0.216,0-0.432,0.144-0.504,0.36C98.804,14.051,98.948,14.339,99.163,14.339L99.163,14.339z"/>
<path fill-rule="evenodd" clip-rule="evenodd" fill="#1D1D1B" d="M103.196,11.819c0,0,1.224,0.288,2.304,0.72
	c0.216,0.072,0.504-0.072,0.576-0.288s-0.072-0.432-0.289-0.576c-1.15-0.36-2.375-0.648-2.447-0.648
	c-0.216-0.072-0.432,0.072-0.504,0.288C102.836,11.531,102.98,11.819,103.196,11.819L103.196,11.819z"/>
<path fill-rule="evenodd" clip-rule="evenodd" fill="#1D1D1B" d="M108.164,13.403c0,0,1.225,0.288,2.231,0.792
	c0.217,0.144,0.505,0,0.577-0.216c0.071-0.216,0-0.433-0.216-0.576c-1.08-0.504-2.305-0.864-2.377-0.864
	c-0.216-0.072-0.433,0.072-0.575,0.288C107.805,13.115,107.947,13.331,108.164,13.403L108.164,13.403z"/>
<path fill-rule="evenodd" clip-rule="evenodd" fill="#1D1D1B" d="M112.988,15.275c0,0,1.152,0.432,2.16,1.008
	c0.216,0.072,0.432,0,0.575-0.216c0.145-0.216,0.072-0.432-0.216-0.576c-1.008-0.576-2.16-1.008-2.232-1.08
	c-0.215-0.072-0.503,0.072-0.575,0.288S112.7,15.131,112.988,15.275L112.988,15.275z"/>
<path fill-rule="evenodd" clip-rule="evenodd" fill="#1D1D1B" d="M117.668,17.436c0,0,1.152,0.576,2.088,1.152
	c0.217,0.144,0.504,0.072,0.576-0.145c0.145-0.144,0.072-0.432-0.072-0.576c-1.08-0.648-2.16-1.152-2.231-1.224
	c-0.216-0.072-0.505,0-0.575,0.216C117.309,17.075,117.453,17.363,117.668,17.436L117.668,17.436z"/>
<path fill-rule="evenodd" clip-rule="evenodd" fill="#1D1D1B" d="M122.133,19.955c0.071,0,1.151,0.648,2.016,1.296
	c0.216,0.144,0.504,0.144,0.648-0.072c0.145-0.215,0.072-0.432-0.072-0.576c-1.008-0.72-2.088-1.368-2.16-1.368
	c-0.217-0.144-0.432-0.072-0.576,0.144C121.845,19.595,121.916,19.884,122.133,19.955L122.133,19.955z"/>
<path fill-rule="evenodd" clip-rule="evenodd" fill="#1D1D1B" d="M126.453,22.835c0,0,1.079,0.72,1.943,1.44
	c0.217,0.144,0.504,0.072,0.648-0.072c0.145-0.216,0.145-0.504-0.072-0.648c-0.936-0.72-1.943-1.44-2.016-1.44
	c-0.217-0.144-0.432-0.144-0.576,0.072C126.236,22.404,126.309,22.691,126.453,22.835L126.453,22.835z"/>
<path fill-rule="evenodd" clip-rule="evenodd" fill="#1D1D1B" d="M130.557,25.932c0.072,0,1.08,0.792,1.873,1.584
	c0.215,0.144,0.432,0.144,0.646,0c0.145-0.216,0.145-0.432,0-0.647c-0.936-0.792-1.944-1.584-1.944-1.584
	c-0.216-0.145-0.503-0.145-0.647,0.071C130.341,25.5,130.412,25.788,130.557,25.932L130.557,25.932z"/>
<path fill-rule="evenodd" clip-rule="evenodd" fill="#1D1D1B" d="M134.518,29.388c0,0,0.936,0.792,1.728,1.656
	c0.144,0.216,0.433,0.216,0.576,0.072c0.216-0.144,0.216-0.503,0.071-0.648c-0.791-0.936-1.8-1.728-1.871-1.728
	c-0.145-0.216-0.432-0.144-0.577,0C134.301,28.956,134.301,29.244,134.518,29.388L134.518,29.388z"/>
<path fill-rule="evenodd" clip-rule="evenodd" fill="#1D1D1B" d="M138.117,32.988c0,0.072,0.936,0.937,1.655,1.872
	c0.145,0.144,0.361,0.216,0.577,0.072c0.215-0.145,0.215-0.432,0.071-0.648c-0.72-0.936-1.656-1.8-1.656-1.872
	c-0.216-0.144-0.431-0.144-0.647,0C137.973,32.556,137.973,32.844,138.117,32.988L138.117,32.988z"/>
<path fill-rule="evenodd" clip-rule="evenodd" fill="#1D1D1B" d="M141.502,36.948c0,0,0.863,1.008,1.511,1.944
	c0.145,0.144,0.36,0.216,0.577,0.072c0.215-0.144,0.287-0.432,0.144-0.576c-0.721-1.008-1.513-1.944-1.585-2.016
	c-0.144-0.216-0.432-0.216-0.575,0C141.357,36.516,141.357,36.804,141.502,36.948L141.502,36.948z"/>
<path fill-rule="evenodd" clip-rule="evenodd" fill="#1D1D1B" d="M144.598,41.124c0,0,0.791,1.009,1.295,2.017
	c0.145,0.144,0.433,0.216,0.648,0.144c0.217-0.144,0.289-0.432,0.145-0.576c-0.576-1.08-1.368-2.088-1.368-2.16
	c-0.145-0.144-0.433-0.216-0.647-0.072C144.525,40.62,144.453,40.908,144.598,41.124L144.598,41.124z"/>
<path fill-rule="evenodd" clip-rule="evenodd" fill="#1D1D1B" d="M147.405,45.444c0,0,0.72,1.08,1.224,2.088
	c0.072,0.216,0.361,0.288,0.576,0.216c0.216-0.144,0.288-0.36,0.216-0.576c-0.575-1.08-1.296-2.16-1.296-2.232
	c-0.144-0.216-0.359-0.216-0.576-0.072C147.333,44.94,147.262,45.228,147.405,45.444L147.405,45.444z"/>
<path fill-rule="evenodd" clip-rule="evenodd" fill="#1D1D1B" d="M149.926,49.98c0,0,0.575,1.08,1.008,2.16
	c0.072,0.216,0.359,0.36,0.576,0.288c0.216-0.072,0.359-0.359,0.287-0.576c-0.504-1.152-1.08-2.232-1.151-2.304
	c-0.072-0.216-0.36-0.288-0.575-0.144C149.854,49.476,149.781,49.765,149.926,49.98L149.926,49.98z"/>
<path fill-rule="evenodd" clip-rule="evenodd" fill="#1D1D1B" d="M152.086,54.733c0,0,0.504,1.08,0.863,2.16
	c0.072,0.288,0.361,0.359,0.576,0.288c0.216-0.072,0.36-0.288,0.288-0.504c-0.36-1.152-0.937-2.304-0.937-2.376
	c-0.144-0.215-0.359-0.288-0.647-0.215C152.086,54.229,151.941,54.444,152.086,54.733L152.086,54.733z"/>
<path fill-rule="evenodd" clip-rule="evenodd" fill="#1D1D1B" d="M153.886,59.557c0,0,0.505,1.151,0.72,2.304
	c0.072,0.216,0.36,0.36,0.575,0.288c0.218-0.072,0.36-0.288,0.29-0.576c-0.29-1.152-0.721-2.304-0.721-2.376
	c-0.145-0.216-0.359-0.289-0.576-0.216C153.957,59.053,153.813,59.269,153.886,59.557L153.886,59.557z"/>
<path fill-rule="evenodd" clip-rule="evenodd" fill="#1D1D1B" d="M155.398,64.525c0,0,0.359,1.152,0.575,2.304
	c0.072,0.216,0.287,0.36,0.505,0.36c0.215-0.072,0.359-0.288,0.359-0.504c-0.217-1.224-0.577-2.376-0.648-2.448
	c0-0.216-0.288-0.36-0.504-0.288C155.471,64.021,155.326,64.237,155.398,64.525L155.398,64.525z"/>
<path fill-rule="evenodd" clip-rule="evenodd" fill="#1D1D1B" d="M156.551,69.493c0,0.072,0.287,1.296,0.431,2.448
	c0,0.217,0.216,0.36,0.432,0.36c0.217,0,0.433-0.216,0.36-0.504c-0.072-1.152-0.36-2.448-0.36-2.448
	c-0.072-0.216-0.287-0.432-0.575-0.36C156.621,69.061,156.479,69.277,156.551,69.493L156.551,69.493z"/>
<path fill-rule="evenodd" clip-rule="evenodd" fill="#1D1D1B" d="M157.341,74.677c0,0,0.218,1.224,0.218,2.376
	c0,0.216,0.215,0.432,0.431,0.432c0.288,0,0.432-0.216,0.432-0.432c0-1.224-0.215-2.52-0.215-2.592
	c-0.072-0.216-0.288-0.36-0.505-0.289C157.486,74.173,157.27,74.389,157.341,74.677L157.341,74.677z"/>
<path fill-rule="evenodd" clip-rule="evenodd" fill="#1D1D1B" d="M157.773,79.79c0,0,0.145,1.224,0.072,2.376
	c0,0.216,0.144,0.432,0.432,0.432c0.216,0,0.433-0.144,0.433-0.432c0-1.152-0.071-2.376-0.071-2.448
	c-0.072-0.216-0.218-0.432-0.505-0.36C157.918,79.357,157.773,79.573,157.773,79.79L157.773,79.79z"/>
<path fill-rule="evenodd" clip-rule="evenodd" fill="#1D1D1B" d="M157.846,84.829c0,0,0,1.297-0.072,2.377
	c-0.072,0.289,0.145,0.504,0.36,0.504s0.433-0.145,0.433-0.359c0.144-1.225,0.144-2.449,0.144-2.521
	c0-0.215-0.217-0.431-0.433-0.431S157.846,84.614,157.846,84.829L157.846,84.829z"/>
<path fill-rule="evenodd" clip-rule="evenodd" fill="#1D1D1B" d="M157.559,90.013c0,0-0.072,1.296-0.289,2.377
	c-0.072,0.214,0.071,0.503,0.36,0.503c0.216,0.072,0.432-0.071,0.504-0.289c0.216-1.223,0.287-2.518,0.287-2.518
	c0-0.289-0.144-0.504-0.432-0.504C157.773,89.583,157.559,89.797,157.559,90.013L157.559,90.013z"/>
<path fill-rule="evenodd" clip-rule="evenodd" fill="#1D1D1B" d="M156.909,95.125c0,0-0.144,1.296-0.431,2.377
	c-0.072,0.215,0.072,0.504,0.287,0.504c0.216,0.072,0.504-0.072,0.575-0.289c0.289-1.151,0.433-2.447,0.433-2.447
	c0-0.289-0.144-0.506-0.433-0.506C157.126,94.764,156.909,94.91,156.909,95.125L156.909,95.125z"/>
<path fill-rule="evenodd" clip-rule="evenodd" fill="#1D1D1B" d="M155.901,100.239c0,0-0.288,1.223-0.648,2.303
	c-0.072,0.216,0.073,0.504,0.288,0.576c0.217,0.072,0.505-0.072,0.576-0.288c0.361-1.151,0.576-2.376,0.648-2.447
	c0-0.216-0.145-0.505-0.359-0.505C156.189,99.805,155.901,99.95,155.901,100.239L155.901,100.239z"/>
<path fill-rule="evenodd" clip-rule="evenodd" fill="#1D1D1B" d="M154.533,105.206c0,0-0.359,1.225-0.792,2.305
	c-0.071,0.215,0.072,0.432,0.287,0.576c0.218,0.072,0.434-0.072,0.577-0.289c0.432-1.078,0.721-2.305,0.793-2.376
	c0-0.216-0.146-0.432-0.361-0.504C154.821,104.846,154.605,104.99,154.533,105.206L154.533,105.206z"/>
<path fill-rule="evenodd" clip-rule="evenodd" fill="#1D1D1B" d="M152.806,110.102c0,0-0.36,1.224-0.864,2.232
	c-0.145,0.215-0.072,0.432,0.145,0.576c0.216,0.071,0.504,0,0.575-0.217c0.577-1.08,0.937-2.232,1.009-2.303
	c0.071-0.217-0.072-0.506-0.288-0.578C153.166,109.742,152.877,109.885,152.806,110.102L152.806,110.102z"/>
<path fill-rule="evenodd" clip-rule="evenodd" fill="#1D1D1B" d="M150.789,114.854c0,0-0.504,1.152-1.08,2.16
	c-0.144,0.216-0.071,0.433,0.145,0.577c0.217,0.143,0.504,0.07,0.576-0.145c0.648-1.009,1.151-2.232,1.151-2.232
	c0.072-0.216,0-0.503-0.216-0.575C151.15,114.567,150.861,114.639,150.789,114.854L150.789,114.854z"/>
<path fill-rule="evenodd" clip-rule="evenodd" fill="#1D1D1B" d="M148.413,119.462c0,0-0.575,1.151-1.224,2.088
	c-0.145,0.217-0.072,0.432,0.144,0.575c0.145,0.146,0.433,0.072,0.577-0.071c0.647-1.007,1.223-2.16,1.295-2.232
	c0.072-0.143,0-0.432-0.215-0.575C148.773,119.174,148.485,119.247,148.413,119.462L148.413,119.462z"/>
<path fill-rule="evenodd" clip-rule="evenodd" fill="#1D1D1B" d="M145.75,123.855c0,0-0.649,1.079-1.368,2.016
	c-0.145,0.216-0.145,0.432,0.071,0.647c0.217,0.145,0.432,0.072,0.576-0.145c0.721-0.936,1.439-2.016,1.439-2.088
	c0.145-0.144,0.072-0.431-0.144-0.575C146.109,123.638,145.893,123.638,145.75,123.855L145.75,123.855z"/>
<path fill-rule="evenodd" clip-rule="evenodd" fill="#1D1D1B" d="M142.725,128.103c0,0-0.72,1.079-1.512,1.872
	c-0.144,0.216-0.144,0.504,0.072,0.647c0.145,0.144,0.432,0.144,0.576,0c0.863-0.935,1.584-2.017,1.584-2.017
	c0.145-0.216,0.072-0.503-0.072-0.647C143.157,127.887,142.869,127.887,142.725,128.103L142.725,128.103z"/>
<path fill-rule="evenodd" clip-rule="evenodd" fill="#1D1D1B" d="M139.484,132.135c0,0-0.792,1.008-1.655,1.729
	c-0.145,0.215-0.145,0.503,0,0.647c0.144,0.144,0.433,0.216,0.647,0c0.793-0.792,1.657-1.801,1.657-1.873
	c0.144-0.144,0.144-0.432-0.072-0.575C139.917,131.918,139.629,131.918,139.484,132.135L139.484,132.135z"/>
<path fill-rule="evenodd" clip-rule="evenodd" fill="#1D1D1B" d="M135.957,135.879c0,0-0.864,0.936-1.801,1.656
	c-0.144,0.143-0.215,0.432-0.071,0.648c0.216,0.145,0.433,0.145,0.647,0c0.938-0.721,1.801-1.657,1.872-1.729
	c0.145-0.146,0.145-0.432-0.071-0.576C136.389,135.663,136.102,135.735,135.957,135.879L135.957,135.879z"/>
<path fill-rule="evenodd" clip-rule="evenodd" fill="#1D1D1B" d="M132.141,139.407c0,0-0.936,0.864-1.871,1.513
	c-0.217,0.144-0.217,0.432-0.145,0.575c0.145,0.217,0.432,0.289,0.648,0.145c1.008-0.72,1.871-1.584,1.943-1.584
	c0.145-0.145,0.217-0.432,0-0.648C132.573,139.262,132.285,139.262,132.141,139.407L132.141,139.407z"/>
<path fill-rule="evenodd" clip-rule="evenodd" fill="#1D1D1B" d="M128.109,142.647c0,0-1.008,0.791-1.945,1.441
	c-0.215,0.07-0.287,0.359-0.143,0.575c0.143,0.215,0.359,0.215,0.575,0.144c1.008-0.648,2.017-1.441,2.088-1.512
	c0.144-0.144,0.144-0.433,0-0.577C128.541,142.503,128.253,142.503,128.109,142.647L128.109,142.647z"/>
<path fill-rule="evenodd" clip-rule="evenodd" fill="#1D1D1B" d="M123.861,145.598c0,0-1.08,0.721-2.089,1.226
	c-0.216,0.143-0.288,0.431-0.144,0.576c0.072,0.216,0.359,0.286,0.575,0.216c1.08-0.577,2.089-1.297,2.16-1.297
	c0.216-0.145,0.216-0.432,0.072-0.576C124.293,145.526,124.076,145.456,123.861,145.598L123.861,145.598z"/>
<path fill-rule="evenodd" clip-rule="evenodd" fill="#1D1D1B" d="M119.396,148.264c0,0-1.08,0.647-2.16,1.079
	c-0.217,0.071-0.288,0.36-0.217,0.575c0.073,0.217,0.361,0.289,0.576,0.217c1.08-0.504,2.232-1.151,2.232-1.151
	c0.217-0.145,0.288-0.36,0.145-0.577C119.828,148.192,119.612,148.12,119.396,148.264L119.396,148.264z"/>
<path fill-rule="evenodd" clip-rule="evenodd" fill="#1D1D1B" d="M114.788,150.567c-0.072,0-1.151,0.577-2.231,0.937
	c-0.217,0.144-0.361,0.36-0.217,0.575c0.072,0.217,0.288,0.361,0.505,0.289c1.151-0.434,2.304-1.009,2.304-1.009
	c0.216-0.143,0.288-0.359,0.216-0.575C115.221,150.567,115.005,150.497,114.788,150.567L114.788,150.567z"/>
<path fill-rule="evenodd" clip-rule="evenodd" fill="#1D1D1B" d="M109.964,152.584c0,0-1.151,0.504-2.231,0.792
	c-0.217,0.07-0.36,0.287-0.288,0.503c0,0.287,0.288,0.432,0.503,0.359c1.152-0.359,2.377-0.862,2.377-0.862
	c0.216-0.072,0.36-0.36,0.288-0.577C110.468,152.584,110.252,152.512,109.964,152.584L109.964,152.584z"/>
<path fill-rule="evenodd" clip-rule="evenodd" fill="#1D1D1B" d="M105.068,154.239c0,0-1.152,0.434-2.305,0.648
	c-0.216,0.072-0.359,0.289-0.359,0.505c0.072,0.215,0.287,0.359,0.576,0.359c1.152-0.287,2.376-0.647,2.376-0.72
	c0.216-0.072,0.359-0.287,0.288-0.504C105.572,154.311,105.356,154.167,105.068,154.239L105.068,154.239z"/>
<path fill-rule="evenodd" clip-rule="evenodd" fill="#1D1D1B" d="M100.1,155.535c0,0.072-1.224,0.36-2.376,0.505
	c-0.217,0.072-0.359,0.287-0.359,0.504s0.287,0.434,0.504,0.361c1.151-0.145,2.375-0.506,2.447-0.506
	c0.216-0.072,0.36-0.287,0.36-0.504C100.604,155.607,100.315,155.464,100.1,155.535L100.1,155.535z"/>
<path fill-rule="evenodd" clip-rule="evenodd" fill="#1D1D1B" d="M94.987,156.543c0,0-1.224,0.217-2.376,0.289
	c-0.216,0-0.433,0.215-0.36,0.504c0,0.216,0.145,0.358,0.433,0.358c1.151-0.07,2.448-0.287,2.521-0.287
	c0.215-0.071,0.359-0.288,0.287-0.503C95.491,156.616,95.276,156.471,94.987,156.543L94.987,156.543z"/>
<path fill-rule="evenodd" clip-rule="evenodd" fill="#1D1D1B" d="M89.876,157.12c0,0-1.225,0.217-2.377,0.145
	c-0.288,0-0.432,0.216-0.432,0.431c-0.072,0.288,0.144,0.433,0.36,0.433c1.224,0,2.521-0.145,2.521-0.145
	c0.287,0,0.431-0.216,0.431-0.503C90.308,157.264,90.091,157.12,89.876,157.12L89.876,157.12z"/>
<path fill-rule="evenodd" clip-rule="evenodd" fill="#1D1D1B" d="M84.763,157.408c0,0-1.223,0.072-2.375-0.071
	c-0.216,0-0.432,0.144-0.432,0.431c-0.072,0.216,0.144,0.433,0.359,0.433c1.225,0.145,2.448,0.072,2.52,0.072
	c0.216,0,0.36-0.217,0.36-0.505C85.195,157.552,84.979,157.336,84.763,157.408L84.763,157.408z"/>
<path fill-rule="evenodd" clip-rule="evenodd" fill="#1D1D1B" d="M79.651,157.264c0,0-1.296,0-2.447-0.145
	c-0.216-0.072-0.433,0.072-0.433,0.36c-0.071,0.215,0.072,0.432,0.361,0.503c1.151,0.145,2.447,0.145,2.519,0.145
	c0.216,0,0.433-0.145,0.433-0.433C80.084,157.48,79.867,157.264,79.651,157.264L79.651,157.264z"/>
<path fill-rule="evenodd" clip-rule="evenodd" fill="#1D1D1B" d="M74.467,156.833c0,0-1.224-0.145-2.375-0.361
	c-0.217-0.072-0.432,0.072-0.504,0.289c-0.071,0.287,0.072,0.504,0.36,0.576c1.152,0.216,2.377,0.358,2.449,0.358
	c0.214,0,0.431-0.215,0.503-0.431C74.899,157.047,74.755,156.833,74.467,156.833L74.467,156.833z"/>
<path fill-rule="evenodd" clip-rule="evenodd" fill="#1D1D1B" d="M69.355,155.967c0,0-1.225-0.216-2.377-0.503
	c-0.216-0.072-0.431,0.07-0.503,0.287c-0.072,0.216,0.072,0.503,0.287,0.575c1.153,0.289,2.449,0.506,2.449,0.506
	c0.288,0.072,0.503-0.145,0.503-0.361C69.787,156.254,69.643,156.04,69.355,155.967L69.355,155.967z"/>
<path fill-rule="evenodd" clip-rule="evenodd" fill="#1D1D1B" d="M64.315,154.815c0,0-1.224-0.287-2.304-0.719
	c-0.215-0.072-0.432,0.07-0.503,0.287c-0.145,0.217,0,0.432,0.216,0.576c1.152,0.36,2.375,0.647,2.448,0.647
	c0.216,0.072,0.431-0.072,0.503-0.287C64.747,155.104,64.602,154.815,64.315,154.815L64.315,154.815z"/>
<path fill-rule="evenodd" clip-rule="evenodd" fill="#1D1D1B" d="M59.419,153.232c0,0-1.225-0.36-2.305-0.792
	c-0.216-0.145-0.432,0-0.576,0.215c-0.072,0.217,0,0.434,0.215,0.577c1.152,0.503,2.376,0.864,2.376,0.864
	c0.216,0.07,0.503-0.072,0.576-0.289C59.778,153.591,59.634,153.304,59.419,153.232L59.419,153.232z"/>
<path fill-rule="evenodd" clip-rule="evenodd" fill="#1D1D1B" d="M54.594,151.359c-0.072,0-1.224-0.431-2.232-1.007
	c-0.215-0.072-0.432,0-0.576,0.215c-0.144,0.217-0.072,0.433,0.216,0.577c1.008,0.575,2.232,1.007,2.232,1.079
	c0.288,0.072,0.503-0.072,0.576-0.289C54.883,151.719,54.811,151.503,54.594,151.359L54.594,151.359z"/>
<path fill-rule="evenodd" clip-rule="evenodd" fill="#1D1D1B" d="M49.915,149.126c-0.072,0-1.152-0.503-2.16-1.079
	c-0.216-0.145-0.432-0.072-0.576,0.145c-0.144,0.145-0.071,0.432,0.144,0.576c1.008,0.646,2.16,1.15,2.232,1.223
	c0.216,0.072,0.432,0,0.576-0.217C50.202,149.487,50.059,149.271,49.915,149.126L49.915,149.126z"/>
<path fill-rule="evenodd" clip-rule="evenodd" fill="#1D1D1B" d="M45.378,146.608c0,0-1.152-0.576-2.016-1.225
	c-0.216-0.144-0.504-0.144-0.648,0.072c-0.144,0.215-0.072,0.432,0.072,0.576c1.008,0.72,2.088,1.368,2.16,1.368
	c0.216,0.144,0.504,0.072,0.576-0.146C45.666,147.039,45.594,146.751,45.378,146.608L45.378,146.608z"/>
<path fill-rule="evenodd" clip-rule="evenodd" fill="#1D1D1B" d="M41.058,143.799c0,0-1.08-0.72-1.944-1.439
	c-0.216-0.145-0.432-0.145-0.576,0.071c-0.216,0.216-0.144,0.432,0,0.576c0.936,0.792,2.016,1.513,2.016,1.513
	c0.216,0.144,0.504,0.144,0.648-0.072C41.274,144.231,41.274,143.944,41.058,143.799L41.058,143.799z"/>
<path fill-rule="evenodd" clip-rule="evenodd" fill="#1D1D1B" d="M36.954,140.703c0,0-1.008-0.792-1.872-1.584
	c-0.144-0.144-0.432-0.144-0.576,0c-0.217,0.216-0.217,0.433,0,0.647c0.863,0.792,1.872,1.585,1.872,1.585
	c0.216,0.144,0.504,0.144,0.648-0.072C37.17,141.135,37.098,140.847,36.954,140.703L36.954,140.703z"/>
<path fill-rule="evenodd" clip-rule="evenodd" fill="#1D1D1B" d="M32.994,137.247c0,0-0.936-0.791-1.656-1.656
	c-0.216-0.215-0.432-0.215-0.648-0.072c-0.145,0.217-0.216,0.506,0,0.648c0.792,0.936,1.728,1.729,1.8,1.729
	c0.144,0.216,0.432,0.145,0.576,0S33.21,137.391,32.994,137.247L32.994,137.247z"/>
<path fill-rule="evenodd" clip-rule="evenodd" fill="#1D1D1B" d="M29.394,133.647c0,0-0.864-0.937-1.584-1.871
	c-0.144-0.145-0.432-0.217-0.648-0.072c-0.144,0.145-0.216,0.432-0.072,0.647c0.72,0.935,1.656,1.799,1.656,1.872
	c0.216,0.144,0.432,0.144,0.648,0C29.538,134.079,29.538,133.792,29.394,133.647L29.394,133.647z"/>
<path fill-rule="evenodd" clip-rule="evenodd" fill="#1D1D1B" d="M26.009,129.688c0,0-0.792-1.01-1.439-1.945
	c-0.145-0.143-0.432-0.215-0.648-0.072c-0.216,0.145-0.216,0.433-0.144,0.576c0.719,1.008,1.512,1.944,1.584,2.017
	c0.144,0.144,0.432,0.216,0.576,0C26.153,130.119,26.153,129.831,26.009,129.688L26.009,129.688z"/>
<path fill-rule="evenodd" clip-rule="evenodd" fill="#1D1D1B" d="M22.914,125.51c0,0-0.792-1.008-1.296-2.016
	c-0.145-0.145-0.433-0.217-0.648-0.145c-0.215,0.145-0.288,0.433-0.144,0.576c0.576,1.08,1.368,2.089,1.368,2.089
	c0.217,0.215,0.432,0.287,0.648,0.143C22.986,126.015,23.058,125.727,22.914,125.51L22.914,125.51z"/>
<path fill-rule="evenodd" clip-rule="evenodd" fill="#1D1D1B" d="M20.105,121.19c0,0-0.72-1.079-1.224-2.16
	c-0.072-0.143-0.288-0.287-0.576-0.143c-0.216,0.072-0.288,0.359-0.144,0.575c0.504,1.079,1.224,2.16,1.224,2.16
	c0.144,0.216,0.36,0.287,0.576,0.145C20.178,121.623,20.25,121.407,20.105,121.19L20.105,121.19z"/>
<path fill-rule="evenodd" clip-rule="evenodd" fill="#1D1D1B" d="M16.793,116.872c0-0.217,0.144-0.361,0.36-0.434
	c0.144-0.072,0.36,0,0.432,0.145c-0.072-0.072-0.576-1.153-1.008-2.088c-0.072-0.217-0.36-0.361-0.576-0.289
	c-0.216,0.072-0.289,0.361-0.216,0.576c1.008,2.593,1.296,2.521,1.512,2.521c0.216-0.072,0.36-0.216,0.36-0.431
	c0-0.289-0.216-0.434-0.432-0.434C17.01,116.438,16.793,116.583,16.793,116.872L16.793,116.872z"/>
<path fill-rule="evenodd" clip-rule="evenodd" fill="#1D1D1B" d="M15.425,111.973c0-0.072-0.504-1.151-0.864-2.231
	c-0.072-0.288-0.288-0.359-0.576-0.288c-0.215,0.072-0.288,0.288-0.215,0.504c0.36,1.153,0.864,2.305,0.864,2.377
	c0.144,0.215,0.36,0.287,0.576,0.215C15.425,112.407,15.569,112.19,15.425,111.973L15.425,111.973z"/>
<path fill-rule="evenodd" clip-rule="evenodd" fill="#1D1D1B" d="M13.625,107.078c0,0-0.504-1.151-0.721-2.304
	c-0.072-0.215-0.288-0.359-0.503-0.287c-0.288,0.072-0.432,0.287-0.36,0.503c0.288,1.224,0.72,2.376,0.792,2.448
	c0.072,0.215,0.36,0.287,0.504,0.215C13.625,107.583,13.697,107.294,13.625,107.078L13.625,107.078z"/>
<path fill-rule="evenodd" clip-rule="evenodd" fill="#1D1D1B" d="M12.113,102.11c0,0-0.36-1.152-0.576-2.305
	c0-0.215-0.216-0.359-0.504-0.359c-0.216,0.072-0.36,0.287-0.36,0.504c0.216,1.223,0.647,2.377,0.647,2.449
	c0.072,0.215,0.289,0.358,0.504,0.287C12.113,102.614,12.185,102.399,12.113,102.11L12.113,102.11z"/>
<path fill-rule="evenodd" clip-rule="evenodd" fill="#1D1D1B" d="M10.961,97.069c0,0-0.288-1.223-0.359-2.305
	c-0.072-0.286-0.216-0.431-0.504-0.431c-0.216,0-0.36,0.217-0.36,0.503c0.072,1.154,0.36,2.377,0.36,2.449
	c0.072,0.217,0.288,0.359,0.576,0.359C10.889,97.573,11.033,97.358,10.961,97.069L10.961,97.069z"/>
<path fill-rule="evenodd" clip-rule="evenodd" fill="#1D1D1B" d="M10.169,91.958c0,0-0.216-1.225-0.216-2.375
	c0-0.217-0.216-0.434-0.432-0.434c-0.216,0-0.433,0.217-0.433,0.434c0,1.223,0.216,2.519,0.216,2.591
	c0.072,0.217,0.288,0.359,0.504,0.289C10.025,92.462,10.241,92.246,10.169,91.958L10.169,91.958z"/>
<path fill-rule="evenodd" clip-rule="evenodd" fill="#1D1D1B" d="M9.737,86.844c0,0-0.072-1.295-0.072-2.447
	c0.072-0.216-0.143-0.431-0.432-0.431c-0.216,0-0.431,0.143-0.431,0.431c0,1.152,0.071,2.447,0.071,2.519
	c0.072,0.217,0.216,0.434,0.504,0.361C9.593,87.278,9.737,87.061,9.737,86.844L9.737,86.844z"/>
<path fill-rule="evenodd" clip-rule="evenodd" fill="#1D1D1B" d="M9.665,81.733c0,0,0-1.224,0.145-2.304
	c0-0.288-0.145-0.504-0.432-0.504c-0.216,0-0.432,0.144-0.432,0.36c-0.144,1.152-0.144,2.448-0.144,2.52
	c0,0.216,0.215,0.432,0.431,0.36C9.521,82.166,9.737,82.021,9.665,81.733L9.665,81.733z"/>
<path fill-rule="evenodd" clip-rule="evenodd" fill="#1D1D1B" d="M9.953,76.621c0,0,0.072-1.296,0.288-2.376
	c0.072-0.216-0.144-0.504-0.359-0.504c-0.217-0.072-0.432,0.144-0.504,0.36c-0.216,1.152-0.288,2.448-0.288,2.448
	c0,0.288,0.216,0.504,0.433,0.504C9.737,77.053,9.953,76.837,9.953,76.621L9.953,76.621z"/>
<path fill-rule="evenodd" clip-rule="evenodd" fill="#1D1D1B" d="M10.602,71.509c0,0,0.215-1.296,0.503-2.376
	c0.072-0.215-0.144-0.503-0.36-0.576s-0.432,0.072-0.504,0.36c-0.288,1.151-0.504,2.375-0.504,2.448
	c0,0.288,0.145,0.504,0.432,0.504C10.385,71.941,10.602,71.725,10.602,71.509L10.602,71.509z"/>
<path fill-rule="evenodd" clip-rule="evenodd" fill="#1D1D1B" d="M11.609,66.397c0,0,0.288-1.224,0.648-2.304
	c0.072-0.216-0.072-0.504-0.288-0.576c-0.216-0.072-0.504,0.072-0.576,0.288c-0.36,1.152-0.576,2.376-0.576,2.448
	c-0.072,0.216,0.072,0.504,0.36,0.504C11.393,66.829,11.609,66.685,11.609,66.397L11.609,66.397z"/>
<path fill-rule="evenodd" clip-rule="evenodd" fill="#1D1D1B" d="M12.977,61.429c0,0,0.36-1.225,0.792-2.305
	c0.072-0.216,0-0.432-0.216-0.576c-0.216-0.072-0.504,0-0.576,0.288c-0.504,1.08-0.792,2.305-0.864,2.376
	c0,0.216,0.144,0.432,0.36,0.504C12.689,61.789,12.905,61.645,12.977,61.429L12.977,61.429z"/>
<path fill-rule="evenodd" clip-rule="evenodd" fill="#1D1D1B" d="M14.706,56.533c0,0,0.432-1.224,0.936-2.232
	c0.072-0.215,0-0.504-0.216-0.576c-0.216-0.144-0.504,0-0.576,0.217c-0.504,1.08-0.937,2.231-0.937,2.304
	c-0.072,0.216,0,0.504,0.216,0.576C14.417,56.893,14.633,56.749,14.706,56.533L14.706,56.533z"/>
<path fill-rule="evenodd" clip-rule="evenodd" fill="#1D1D1B" d="M16.721,51.78c0,0,0.504-1.224,1.08-2.16
	c0.144-0.215,0.072-0.504-0.144-0.576c-0.216-0.144-0.504-0.072-0.576,0.145c-0.648,1.008-1.152,2.232-1.152,2.232
	c-0.072,0.215,0,0.503,0.215,0.576C16.361,52.069,16.649,51.997,16.721,51.78L16.721,51.78z"/>
<path fill-rule="evenodd" clip-rule="evenodd" fill="#1D1D1B" d="M19.098,47.172c0,0,0.576-1.152,1.224-2.088
	c0.144-0.216,0.071-0.433-0.144-0.576c-0.144-0.145-0.432-0.072-0.577,0.072c-0.647,1.008-1.224,2.16-1.295,2.231
	c-0.072,0.145,0,0.432,0.216,0.576C18.737,47.46,19.025,47.388,19.098,47.172L19.098,47.172z"/>
<path fill-rule="evenodd" clip-rule="evenodd" fill="#1D1D1B" d="M21.761,42.708c0.073,0,0.649-1.08,1.44-1.944
	c0.144-0.144,0.072-0.432-0.072-0.648c-0.216-0.144-0.504-0.072-0.648,0.072c-0.72,0.936-1.368,2.088-1.44,2.088
	c-0.072,0.215-0.072,0.504,0.144,0.576C21.402,42.996,21.689,42.924,21.761,42.708L21.761,42.708z"/>
<path fill-rule="evenodd" clip-rule="evenodd" fill="#1D1D1B" d="M24.786,38.532c0,0,0.72-1.08,1.512-1.872
	c0.145-0.216,0.145-0.504-0.072-0.648c-0.144-0.145-0.432-0.145-0.576,0.072c-0.792,0.864-1.512,1.872-1.584,1.944
	c-0.145,0.216-0.072,0.432,0.144,0.576C24.354,38.748,24.642,38.748,24.786,38.532L24.786,38.532z"/>
<path fill-rule="evenodd" clip-rule="evenodd" fill="#1D1D1B" d="M28.098,34.5c0,0,0.72-1.008,1.584-1.8
	c0.144-0.144,0.215-0.432,0-0.576c-0.144-0.216-0.433-0.216-0.576-0.072c-0.864,0.864-1.656,1.873-1.729,1.944
	c-0.144,0.144-0.072,0.432,0.072,0.576C27.666,34.716,27.954,34.716,28.098,34.5L28.098,34.5z"/>
<path fill-rule="evenodd" clip-rule="evenodd" fill="#1D1D1B" d="M31.625,30.756c0,0,0.864-0.936,1.729-1.656
	c0.216-0.216,0.216-0.432,0.072-0.647c-0.145-0.145-0.433-0.216-0.648-0.073c-0.936,0.792-1.8,1.729-1.8,1.8
	c-0.215,0.145-0.144,0.433,0,0.576C31.194,30.972,31.41,30.9,31.625,30.756L31.625,30.756z"/>
<path fill-rule="evenodd" clip-rule="evenodd" fill="#1D1D1B" d="M35.37,27.227c0,0,0.937-0.863,1.873-1.511
	c0.216-0.144,0.216-0.432,0.072-0.648c-0.072-0.144-0.36-0.216-0.576-0.072c-0.936,0.72-1.872,1.584-1.944,1.584
	c-0.144,0.144-0.216,0.432,0,0.647C34.938,27.372,35.226,27.372,35.37,27.227L35.37,27.227z"/>
<path fill-rule="evenodd" clip-rule="evenodd" fill="#1D1D1B" d="M39.474,23.987c0,0,0.936-0.792,1.944-1.44
	c0.144-0.072,0.216-0.36,0.144-0.576c-0.144-0.216-0.432-0.216-0.647-0.144c-1.008,0.648-2.017,1.44-2.017,1.512
	c-0.216,0.144-0.216,0.432-0.072,0.576C38.97,24.132,39.258,24.132,39.474,23.987L39.474,23.987z"/>
<path fill-rule="evenodd" clip-rule="evenodd" fill="#1D1D1B" d="M43.65,21.035c0.072,0,1.08-0.72,2.088-1.296
	c0.216-0.072,0.289-0.359,0.216-0.576c-0.145-0.216-0.432-0.288-0.648-0.145c-1.08,0.576-2.088,1.296-2.088,1.296
	c-0.216,0.145-0.288,0.432-0.144,0.576C43.218,21.107,43.506,21.179,43.65,21.035L43.65,21.035z"/>
<path fill-rule="evenodd" clip-rule="evenodd" fill="#1D1D1B" d="M48.115,18.371c0.072,0,1.08-0.647,2.16-1.08
	c0.215-0.144,0.288-0.359,0.215-0.576c-0.072-0.216-0.36-0.36-0.576-0.288c-1.08,0.504-2.16,1.152-2.232,1.224
	c-0.216,0.144-0.288,0.36-0.144,0.576C47.682,18.443,47.97,18.516,48.115,18.371L48.115,18.371z"/>
<path fill-rule="evenodd" clip-rule="evenodd" fill="#1D1D1B" d="M52.794,16.067c0,0,1.079-0.648,2.16-1.008
	c0.216-0.072,0.36-0.288,0.288-0.576c-0.072-0.145-0.36-0.288-0.577-0.216c-1.079,0.359-2.231,1.008-2.304,1.008
	c-0.215,0.144-0.288,0.36-0.215,0.576C52.29,16.067,52.578,16.139,52.794,16.067L52.794,16.067z"/>
<path fill-rule="evenodd" clip-rule="evenodd" fill="#1D1D1B" d="M57.546,14.051c0,0,1.152-0.504,2.232-0.792
	c0.217-0.072,0.361-0.36,0.289-0.576c-0.072-0.217-0.289-0.36-0.504-0.289c-1.152,0.36-2.304,0.864-2.376,0.864
	c-0.216,0.072-0.289,0.36-0.216,0.576C57.043,14.051,57.331,14.123,57.546,14.051L57.546,14.051z"/>
<path fill-rule="evenodd" clip-rule="evenodd" fill="#1D1D1B" d="M62.443,12.395c0,0,1.225-0.432,2.304-0.648
	c0.217-0.072,0.36-0.288,0.36-0.504c-0.071-0.216-0.288-0.36-0.575-0.36c-1.152,0.216-2.376,0.648-2.376,0.648
	c-0.216,0.072-0.359,0.36-0.288,0.576C61.938,12.323,62.155,12.467,62.443,12.395L62.443,12.395z"/>
<path fill-rule="evenodd" clip-rule="evenodd" fill="#1D1D1B" d="M67.411,11.099c0.071-0.072,1.224-0.36,2.375-0.504
	c0.217-0.072,0.432-0.288,0.361-0.504c0-0.215-0.217-0.432-0.434-0.36c-1.223,0.145-2.447,0.504-2.519,0.504
	c-0.217,0.072-0.361,0.288-0.289,0.504C66.979,11.027,67.196,11.171,67.411,11.099L67.411,11.099z"/>
<path fill-rule="evenodd" clip-rule="evenodd" fill="#1D1D1B" d="M72.523,10.091c0,0,1.225-0.215,2.376-0.36
	c0.216,0,0.432-0.144,0.432-0.432c-0.072-0.216-0.215-0.432-0.504-0.359c-1.152,0.071-2.448,0.288-2.52,0.288
	c-0.216,0.072-0.36,0.288-0.288,0.504C72.019,10.02,72.236,10.163,72.523,10.091L72.523,10.091z"/>
<path fill-rule="evenodd" clip-rule="evenodd" fill="#1D1D1B" d="M77.635,9.443c0,0,1.296-0.145,2.449-0.145
	c0.216,0,0.431-0.144,0.431-0.359c0-0.289-0.215-0.432-0.431-0.432c-1.225,0-2.449,0.144-2.521,0.144
	c-0.287,0-0.431,0.216-0.431,0.432C77.204,9.299,77.419,9.515,77.635,9.443L77.635,9.443z"/>
<path fill-rule="evenodd" clip-rule="evenodd" fill="#1D1D1B" d="M82.819,9.227c0,0,1.224-0.072,2.305,0
	c0.287,0.072,0.504-0.144,0.504-0.36c0-0.216-0.145-0.432-0.433-0.504c-1.152-0.072-2.376,0-2.448,0c-0.216,0-0.36,0.216-0.36,0.432
	C82.388,9.083,82.603,9.227,82.819,9.227L82.819,9.227z"/>
<path fill-rule="evenodd" clip-rule="evenodd" fill="#1D1D1B" d="M87.859,9.371c0.071,0,1.296,0,2.448,0.144
	c0.216,0.072,0.433-0.071,0.504-0.359c0-0.216-0.144-0.433-0.36-0.504c-1.224-0.144-2.521-0.144-2.592-0.144
	c-0.216,0-0.36,0.144-0.36,0.432C87.499,9.155,87.644,9.371,87.859,9.371L87.859,9.371z"/>
<path fill-rule="evenodd" clip-rule="evenodd" fill="#1D1D1B" d="M93.044,9.803c0,0,1.295,0.145,2.375,0.36
	c0.217,0.072,0.504-0.072,0.504-0.288c0.072-0.289-0.071-0.504-0.287-0.577c-1.225-0.216-2.447-0.359-2.52-0.359
	c-0.217,0-0.433,0.144-0.505,0.432C92.611,9.587,92.755,9.803,93.044,9.803L93.044,9.803z"/>
<path fill-rule="evenodd" clip-rule="evenodd" fill="#1D1D1B" d="M58.698,86.052c-1.655-0.432-3.527,2.665-3.888,3.241
	c-0.216,0.576-0.72,1.801-1.296,3.169c-0.576,1.439-1.225,3.022-1.44,3.528c-0.072,0.143-0.072,0.215-0.216,0.431
	c-0.936,1.009-1.8,1.872-2.016,2.088c-0.72,0.575-2.52,1.802-3.6,1.729c-0.433-0.072-0.576-0.793-0.288-1.154
	c0.36-0.575,0.792-1.078,1.008-1.367c0.576-0.576,1.44-1.08,1.728-1.08c0.288,0.144,0.216,0.576,0.144,0.793
	c0,0.359,0.215,0.721,0.648,0.792c0.36,0.071,0.72-0.216,0.792-0.577c0.215-1.079-0.145-2.016-1.008-2.375
	c-1.08-0.434-2.736,0.863-3.312,1.44c-0.289,0.358-0.648,0.792-1.08,1.368c-0.576,0.791-1.224,1.654-1.729,2.16
	c-0.216,0.144-0.576,0.431-0.936,0.359c-0.288-0.072-0.576-0.216-0.792-0.576c-0.144-0.289,0.432-1.513,1.368-2.664
	c0.36-0.289,0.576-0.864,0.072-1.225c-0.504-0.432-0.864-0.071-1.224,0.288c-1.224,1.513-2.736,3.097-3.096,3.312
	c-0.648,0.434-1.152,1.009-1.728,0.506c-0.072-0.289,0.216-1.01,0.72-1.801c0.576-0.576,1.08-1.225,1.512-2.017
	c0.144-0.359,0.072-0.72-0.216-0.937c-0.288-0.215-0.72-0.143-0.936,0.145c-0.432,0.433-1.008,1.151-1.512,1.943
	c-0.648,0.578-1.296,1.081-1.944,1.512c-0.576,0.434-1.152,0.865-1.656,1.298c-0.432,0.503-0.648,0.575-0.72,0.647
	c-0.144-0.072-0.288-0.36-0.359-0.504c-0.145-0.504,1.007-2.809,1.728-3.602c0.359-0.358,0.792-0.791,0.576-1.295
	c-0.288-0.648-0.864-0.432-1.368-0.432s-1.656,0.721-3.456,2.088c0.288-0.505,0.576-1.008,0.792-1.512
	c3.096-2.736,7.344-6.77,7.992-8.424c0.289-0.793,0.576-1.729,0.072-2.305c-0.432-0.504-1.08-0.361-1.44-0.361
	c0,0.072-0.072,0.072-0.072,0.072c-0.72,0.144-4.248,2.376-6.696,8.065c-0.36,0.72-0.648,1.439-1.008,2.015
	c-0.792,0.938-1.728,1.801-2.665,2.521c-0.792,0.648-4.751,3.168-5.399,1.224c-0.361-0.937-0.145-2.88,0.936-4.751
	c1.44-2.666,5.76-5.688,6.696-5.978c0.72-0.144,1.296-0.288,1.44,0.145c0,0.647-0.144,2.089-0.864,2.664
	c-0.36,0.288-0.936,0.575-1.296,0.216c0.072-0.216,0.36-0.647,0.576-1.008c0.288-0.287,0.216-0.793-0.072-1.008
	c-0.288-0.289-0.72-0.217-1.008,0.07c-0.504,0.578-1.44,1.945-0.648,2.811c0.576,0.72,1.872,1.223,3.384,0.07
	c1.44-1.224,1.512-3.743,1.296-4.535c-0.36-1.296-2.16-1.081-3.168-0.793c-1.512,0.432-6.048,3.745-7.633,6.625
	c-1.151,2.016-1.512,4.32-1.008,5.903c0.216,0.72,0.648,1.226,1.152,1.513c1.728,0.791,4.68-0.721,6.336-2.017
	c-0.864,1.296-1.296,1.873-1.296,1.873c-0.288,0.287-0.288,0.721,0,1.007c0.288,0.217,0.72,0.289,1.008,0
	c1.584-1.367,3.457-2.951,4.681-3.887c-0.721,1.295-1.369,2.951-0.792,3.814c0.289,0.506,0.72,1.082,1.369,1.153
	c0.647,0,1.151-0.288,1.943-1.009c0.433-0.432,1.008-0.863,1.584-1.223c0,0.359,0.072,0.791,0.432,1.006
	c1.512,1.01,2.232,0.648,2.736,0.289c0.576-0.361,0.936-0.648,1.512-1.151c0.072,0.144,0.072,0.216,0.144,0.359
	c0.433,0.72,1.08,1.224,1.8,1.296c0.792,0.072,1.512-0.215,2.088-0.793c0.216-0.142,0.432-0.359,0.576-0.575
	c0.072,0.072,0.144,0.216,0.216,0.288c0.288,0.359,0.72,0.648,1.224,0.648c1.08,0.145,2.232-0.361,3.096-0.937
	c-0.288,0.575-0.576,0.937-0.648,1.009c-0.215,0.359-0.144,0.792,0.216,1.079c0.288,0.217,0.792,0.145,1.008-0.216
	c0.144-0.215,0.864-1.369,1.656-2.664c0.144,0.145,0.359,0.289,0.648,0.434c0,0.719,0.144,1.871,1.008,2.303
	c1.08,0.576,2.232,0.144,3.168-0.215c2.376-1.154,2.376-1.514,2.376-1.801c0-0.432-0.289-0.721-0.721-0.721
	c-0.216,0-0.36,0.072-0.576,0.217c-0.144,0.145-0.936,0.575-1.728,0.936c-0.864,0.432-1.44,0.504-1.872,0.287l0,0
	c-0.071-0.072-0.144-0.359-0.216-0.647c0.576-0.071,1.08-0.216,1.656-0.503c0.792-0.434,1.439-1.224,1.655-1.801
	c0.072-0.359,0.217-0.863,0-1.441c-0.287-0.503-0.863-0.719-1.296-0.791c-0.432-0.143-1.008-0.071-1.584,0.145
	c1.801-2.017,3.744-4.32,4.177-5.4c0.143-0.433,0.36-0.937,0.647-1.367c0.504-1.225,1.008-2.16,0.649-2.881
	C59.275,86.341,59.059,86.125,58.698,86.052L58.698,86.052z"/>
<path fill-rule="evenodd" clip-rule="evenodd" fill="#1D1D1B" d="M38.538,99.733c0,0,0,0,0.072,0
	C38.538,99.733,38.538,99.733,38.538,99.733L38.538,99.733z"/>
<polygon fill-rule="evenodd" clip-rule="evenodd" fill="#1D1D1B" points="57.259,100.239 57.259,100.239 57.259,100.239 "/>
<polygon fill-rule="evenodd" clip-rule="evenodd" fill="#1D1D1B" points="57.187,100.382 57.187,100.382 57.187,100.382 "/>
<polygon fill-rule="evenodd" clip-rule="evenodd" fill="#1D1D1B" points="52.219,98.726 52.219,98.726 52.219,98.726 "/>
<path fill-rule="evenodd" clip-rule="evenodd" fill="#1D1D1B" d="M150.357,92.75c-0.359-0.287-0.864-0.432-1.584-0.359
	c-0.504,0.072-1.225,0.432-1.872,0.862c-0.071-0.359-0.288-0.648-0.576-0.935c-0.937-0.792-2.376-0.72-2.521-0.647c0,0,0,0-0.071,0
	c-1.944-0.289-3.961,2.447-4.681,3.672c-0.216,0.287-0.863,0.791-1.44,1.224c-0.358,0.287-0.791,0.575-1.151,0.864
	c-1.008,0.792-1.439,0.863-1.8,0.792c-0.071-0.071-0.144-0.505,0.144-1.585c0.865-0.646,1.512-1.225,1.8-1.584l0.288-0.36
	c2.305-2.735,4.681-5.688,4.969-7.128c0.144-0.863,0.359-2.375-0.576-2.88c-0.216-0.143-0.792-0.287-1.44,0.433
	c-0.792,0.864-4.247,5.472-5.544,8.713c-0.216,0.575-0.576,1.512-0.72,1.943c-0.289,0.145-0.576,0.359-0.792,0.575
	c0.287-0.575,1.584-1.871,0.648-2.519c-0.361-0.217-0.793-0.072-1.008,0.215c-0.793,1.367-2.809,3.168-3.457,3.816
	c-0.936,0.936-0.936,0.936-1.729,0.864c-0.071-0.288,0-0.937,0.217-1.513c0.72-0.72,1.512-1.656,2.304-2.735
	c0.216-0.36,0.144-0.792-0.144-1.009c-0.36-0.217-0.793-0.145-1.008,0.145c-1.44,2.016-2.953,3.239-4.752,4.68
	c-0.361,0.288-1.08,0.576-1.585,0.504c-0.072-0.288-0.144-1.08,0.144-1.729l1.297-1.223c0.145-0.145,0.863-0.937,0.72-1.801
	c-0.072-0.359-0.216-0.863-0.864-1.224c-1.439-0.721-2.592-0.432-3.96,0c-0.647,0.216-1.513,0.792-3.168,2.159
	c-0.576,0.504-1.151,1.01-1.729,1.44c0.937-2.304,2.737-6.769,3.169-7.776c0.215-0.216,0.359-0.359,0.576-0.503
	c0.936-0.289,1.799-0.647,2.52-1.226c0.287-0.215,0.359-0.575,0.216-0.864c-0.144-0.358-0.504-0.503-0.864-0.432
	c-0.072,0.073-1.296,0.432-2.52,1.224c-2.376,0.578-5.112,0.289-5.185,0.289c-0.36,0-0.72,0.289-0.791,0.647
	c0,0.434,0.287,0.792,0.647,0.792c0.144,0.072,1.871,0.217,3.889,0c-1.368,3.313-3.24,7.921-3.457,8.424h-0.071
	c-0.36-0.216-0.792-0.719-1.297-1.367c-0.072-0.145-0.144-0.287-0.216-0.432c-0.359-0.505-0.792-0.72-1.296-0.647
	c-0.721,0.072-1.151,0.862-1.44,1.583c-0.36,0.72-0.36,1.656,0.072,2.521c0.359,0.937,1.08,1.657,1.8,1.944
	c1.297,0.432,2.448-0.865,3.169-2.017c0.288,0,0.576-0.144,0.936-0.288c0.216-0.143,0.504-0.359,0.721-0.504
	c0.071,0.217,0.071,0.433,0.215,0.648c0.288,0.719,0.937,1.223,1.729,1.367c1.08,0.217,2.664-0.648,3.528-1.224
	c0.071,0.647,0.288,1.224,0.864,1.513c1.152,0.432,2.52-0.217,3.168-0.648c0.145-0.145,0.432-0.361,1.008-0.792
	c0,0.289,0.072,0.575,0.217,0.864c0.215,0.359,0.575,0.576,1.008,0.648c0.215,0,0.359,0,0.503,0
	c-0.864,0.719-1.728,1.512-2.159,2.088c-0.648,0.791-1.873,3.096-1.369,4.104c0.072,0.217,0.289,0.361,0.576,0.433
	c0.504,0.144,1.297-0.071,1.873-0.505c2.303-1.655,3.383-2.953,4.031-5.903c0.072-0.144,0.217-0.505,0.432-0.937
	c0.793-0.503,1.514-1.08,2.232-1.584c0,0.504,0.144,0.864,0.217,1.081c0.216,0.358,0.504,0.647,0.936,0.718
	c0.936,0.217,1.872-0.143,3.096-1.151c0.36-0.287,0.793-0.647,1.225-0.937c0,0.145,0.071,0.289,0.144,0.434
	c0.217,0.575,0.72,1.007,1.44,1.15c1.08,0.289,3.313-2.16,3.815-3.166c0.217-0.434,0.937-1.729,0.937-2.809
	c0.144,0.07,0.288,0.143,0.432,0.215c0.072,0.072,0.217,0.289,0.217,0.577c0.072,1.151-1.297,3.239-2.16,4.248
	c-0.217,0.287-0.217,0.791,0.072,1.007c0.359,0.289,0.791,0.217,1.08-0.072c0.216-0.287,1.8-2.232,2.304-4.104
	c0.432-0.36,1.584-1.295,2.231-1.295c0,0.359,0.217,0.647,0.576,0.792c0.361,0.072,0.721-0.145,0.864-0.576
	C150.717,93.397,150.501,92.965,150.357,92.75L150.357,92.75z"/>
<path fill-rule="evenodd" clip-rule="evenodd" fill="#FFFFFF" d="M110.973,99.229c-0.36-0.145-0.793-0.575-1.009-1.15
	c-0.216-0.506-0.216-1.01-0.071-1.368c0.144-0.289,0.215-0.433,0.287-0.577c0.072,0.072,0.145,0.145,0.216,0.288
	c0.361,0.503,0.937,1.296,1.729,1.801C111.332,99.301,110.973,99.229,110.973,99.229L110.973,99.229z"/>
<path fill-rule="evenodd" clip-rule="evenodd" fill="#FFFFFF" d="M117.523,98.366c-0.358-0.072-0.575-0.215-0.719-0.504
	c-0.145-0.359,0-0.865,0.288-1.44c0,0,0.072-0.072,0.072-0.144c0.071-0.072,0.144-0.145,0.216-0.216
	c0.791-0.649,2.016-1.729,2.375-1.801c0.289,0,0.576-0.072,0.865-0.144c0.719-0.144,1.583-0.359,2.231,0
	c0.144,0.071,0.144,0.071,0.144,0.144s-0.144,0.361-0.287,0.575c0,0-1.944,1.874-2.232,2.16
	C119.469,97.79,118.028,98.509,117.523,98.366L117.523,98.366z"/>
<path fill-rule="evenodd" clip-rule="evenodd" fill="#FFFFFF" d="M126.957,103.911c-0.432,0.287-0.936,0.792-1.44,1.007
	c0.216-0.575,0.576-1.296,0.937-1.8c0.432-0.504,1.439-1.367,2.375-2.088C128.324,102.254,127.748,103.261,126.957,103.911
	L126.957,103.911z"/>
<path fill-rule="evenodd" clip-rule="evenodd" fill="#FFFFFF" d="M140.564,86.557c0,0.215-0.071,0.432-0.144,0.648
	c-0.071,0.647-0.937,2.16-4.392,6.264C137.324,90.95,139.557,87.781,140.564,86.557L140.564,86.557z"/>
<path fill-rule="evenodd" clip-rule="evenodd" fill="#FFFFFF" d="M142.797,95.27c-0.864,1.224-1.944,2.375-2.304,2.447
	c-0.144,0-0.359-0.072-0.432-0.287c-0.072-0.217,0-0.72,0.288-1.152c0.071-0.145,0.071-0.287,0.071-0.432
	c1.009-1.513,2.376-2.881,3.097-2.736l0,0C143.662,93.397,143.229,94.406,142.797,95.27L142.797,95.27z"/>
<path fill-rule="evenodd" clip-rule="evenodd" fill="#1D1D1B" d="M88.147,108.878c0-2.448-1.943-4.392-4.392-4.392
	c-2.304,0-4.319,1.943-4.319,4.392c0,2.447,2.016,4.391,4.319,4.391C86.204,113.269,88.147,111.326,88.147,108.878L88.147,108.878z"
	/>
<path fill-rule="evenodd" clip-rule="evenodd" fill="#FFFFFF" d="M87.644,108.878c0,2.16-1.729,3.888-3.888,3.888
	c-2.016,0-3.816-1.728-3.816-3.888c0-2.159,1.8-3.889,3.816-3.889C85.915,104.99,87.644,106.719,87.644,108.878L87.644,108.878z"/>
<path fill-rule="evenodd" clip-rule="evenodd" fill="#1D1D1B" d="M82.172,111.181h0.647v-2.087h1.512
	c1.009,0,0.793,0.863,0.864,1.439l0.145,0.647h0.72c-0.289-0.431-0.217-0.575-0.289-1.151c-0.071-0.863-0.071-0.936-0.575-1.295
	c0.504-0.361,0.72-0.576,0.647-1.225c-0.072-1.08-0.792-1.225-1.512-1.225h-2.159V111.181L82.172,111.181z"/>
<path fill-rule="evenodd" clip-rule="evenodd" fill="#FFFFFF" d="M84.331,106.862c0.359,0,1.009,0.072,0.864,0.936
	c-0.071,0.648-0.433,0.721-0.864,0.721h-1.512v-1.656H84.331L84.331,106.862z"/>
<path fill-rule="evenodd" clip-rule="evenodd" fill="#FFFFFF" d="M36.81,86.197c0,0.145-0.072,0.36-0.216,0.647
	c-0.36,0.937-2.521,3.097-4.969,5.474C33.93,87.781,36.45,86.341,36.81,86.197L36.81,86.197z"/>
<path fill-rule="evenodd" clip-rule="evenodd" fill="#FFFFFF" d="M55.171,97.502c0.144,0.07,0.287,0.143,0.359,0.143
	c-0.072,0.072-0.072,0.217-0.144,0.361l0,0c-0.071,0.287-1.224,1.439-2.304,1.15c-0.504-0.144-0.72-0.359-0.792-0.503
	C53.298,98.006,54.666,97.358,55.171,97.502L55.171,97.502z"/>
<path fill-rule="evenodd" clip-rule="evenodd" fill="#FFFFFF" d="M56.754,90.375c-0.215,0.431-0.936,1.438-1.8,2.519
	c0.503-1.223,1.008-2.519,1.224-2.952c0.36-0.864,1.224-1.871,1.8-2.304c-0.144,0.36-0.36,0.864-0.576,1.225
	C57.187,89.366,56.971,89.87,56.754,90.375L56.754,90.375z"/>
<g>
</g>
<g>
</g>
<g>
</g>
<g>
</g>
<g>
</g>
<g>
</g>
<g>
</g>
<g>
</g>
<g>
</g>
<g>
</g>
<g>
</g>
<g>
</g>
<g>
</g>
<g>
</g>
<g>
</g>
</svg>
