<?xml version="1.0" encoding="utf-8"?>
<!-- Generator: Adobe Illustrator 16.0.3, SVG Export Plug-In . SVG Version: 6.00 Build 0)  -->
<!DOCTYPE svg PUBLIC "-//W3C//DTD SVG 1.1//EN" "http://www.w3.org/Graphics/SVG/1.1/DTD/svg11.dtd">
<svg version="1.1" id="Calque_1" xmlns="http://www.w3.org/2000/svg" xmlns:xlink="http://www.w3.org/1999/xlink" x="0px" y="0px"
	 width="167.777px" height="167.778px" viewBox="0 0 167.777 167.778" enable-background="new 0 0 167.777 167.778"
	 xml:space="preserve">
<path fill-rule="evenodd" clip-rule="evenodd" fill="#1D1D1B" d="M124.869,52.644l6.047,10.081l3.961-2.375l-1.296-2.16
	l-2.088,1.296l-2.521-4.176l4.319-2.521l2.089,3.528l2.016-1.225l-2.16-3.528l3.313-2.016l2.521,4.248l-1.728,1.08l1.223,2.017
	l3.601-2.16l-6.048-10.081l-1.872,1.152l0.864,1.368l-9.577,5.76l-0.792-1.368L124.869,52.644L124.869,52.644z M117.596,43.789
	l-0.863,1.008l-1.656-1.512l3.456-3.888l1.655,1.511c-1.008,2.017-0.863,3.744,0.505,4.969c1.08,0.936,2.521,0.936,3.384-0.072
	c0.865-0.936,0.648-2.016-0.432-3.6l-0.936-1.512c-1.513-2.375-1.656-4.176-0.145-5.904c1.656-1.872,4.465-1.944,6.408-0.144
	c1.08,0.936,1.656,2.16,1.729,3.312l0.72-0.72l1.584,1.44l-3.097,3.384l-1.584-1.44c0.865-1.656,0.721-3.024-0.504-4.104
	c-1.008-0.936-2.232-0.864-2.951-0.072c-0.721,0.792-0.576,1.512,0.072,2.592l1.008,1.656c1.799,2.809,2.16,4.681,0.359,6.696
	c-1.944,2.088-4.607,2.304-6.768,0.36C118.316,46.596,117.668,45.3,117.596,43.789L117.596,43.789z M105.645,35.652l2.16-4.393
	l1.295,0.648c2.305,1.08,2.16,2.088,1.152,4.104l-1.656,3.456l3.816,1.872l0.936-1.944l-1.295-0.648l1.367-2.88
	c0.793-1.512,0.505-2.52-0.792-3.384c1.872,0.216,3.168-0.36,3.889-1.872c1.224-2.593,0.071-4.393-3.241-6.049l-5.76-2.808
	L106.58,23.7l1.512,0.72l-4.896,10.008l-1.513-0.72l-0.935,1.945l5.615,2.736l0.936-1.872L105.645,35.652L105.645,35.652z
	 M110.54,25.644l1.8,0.864c1.656,0.792,2.232,1.728,1.585,3.024c-0.649,1.368-1.729,1.439-3.313,0.647l-1.872-0.864L110.54,25.644
	L110.54,25.644z M86.708,33.132l0.359-2.088l1.656,0.216l1.728-11.016l-1.655-0.216l0.359-2.16l11.594,1.872l-0.649,4.176
	l-2.376-0.432l0.359-2.016l-4.895-0.72l-0.577,3.816l4.032,0.648l-0.359,2.304l-4.105-0.647l-0.72,4.896l4.753,0.72l0.359-2.376
	l2.521,0.36l-0.72,4.536L86.708,33.132L86.708,33.132z M77.204,34.14l1.871-0.216l2.953-14.113l1.08-0.144l-0.288-2.088
	l-5.184,0.576l0.289,2.16l1.44-0.144l-1.801,8.785l-3.888-8.137l1.368-0.144l-0.289-2.16l-5.327,0.72l0.215,2.087l1.081-0.144
	L77.204,34.14L77.204,34.14z M60.354,36.3l-3.167-8.712l9.792,8.856l2.232-0.792l-4.68-12.817l1.583-0.576l-0.721-2.016
	l-5.616,2.016l0.72,2.087l1.584-0.576l2.736,7.417l-8.64-7.56l-4.464,1.584l0.721,2.015l1.583-0.503l3.816,10.44l-1.584,0.576
	l0.792,2.016l5.543-2.016l-0.72-2.016L60.354,36.3L60.354,36.3z M37.746,46.02c-3.024-3.384-2.808-8.28,0.648-11.448
	c1.584-1.369,3.384-2.088,5.328-2.088c2.376-0.072,4.464,0.864,6.12,2.664c1.368,1.584,2.088,3.456,2.088,5.544
	c-0.072,2.232-1.008,4.249-2.808,5.833C45.666,49.692,40.77,49.333,37.746,46.02L37.746,46.02z M39.978,44.004
	c2.088,2.376,5.328,2.52,7.417,0.576c2.16-1.872,2.376-5.041,0.216-7.417c-2.088-2.448-5.328-2.52-7.417-0.576
	C38.034,38.46,37.818,41.628,39.978,44.004L39.978,44.004z M31.842,50.341l1.151-1.945l-4.392-2.664l-1.152,1.944l1.08,0.648
	c-1.296,0.216-2.521,1.151-3.528,2.736c-2.304,3.888-1.296,8.424,2.808,10.944c3.96,2.376,8.64,1.224,11.088-2.808
	c1.656-2.808,1.296-6.192-1.08-8.568l-1.368,2.304c1.152,1.801,1.225,3.24,0.217,4.969c-1.656,2.664-4.537,3.312-7.345,1.584
	c-2.808-1.656-3.601-4.536-2.016-7.2C28.314,50.628,29.897,49.909,31.842,50.341L31.842,50.341z"/>
<g>
</g>
<g>
</g>
<g>
</g>
<g>
</g>
<g>
</g>
<g>
</g>
<g>
</g>
<g>
</g>
<g>
</g>
<g>
</g>
<g>
</g>
<g>
</g>
<g>
</g>
<g>
</g>
<g>
</g>
</svg>
