<?xml version="1.0" encoding="utf-8"?>
<!-- Generator: Adobe Illustrator 16.0.3, SVG Export Plug-In . SVG Version: 6.00 Build 0)  -->
<!DOCTYPE svg PUBLIC "-//W3C//DTD SVG 1.1//EN" "http://www.w3.org/Graphics/SVG/1.1/DTD/svg11.dtd">
<svg version="1.1" id="Calque_1" xmlns="http://www.w3.org/2000/svg" xmlns:xlink="http://www.w3.org/1999/xlink" x="0px" y="0px"
	 width="167.777px" height="167.778px" viewBox="0 0 167.777 167.778" enable-background="new 0 0 167.777 167.778"
	 xml:space="preserve">
<path fill-rule="evenodd" clip-rule="evenodd" fill="#1D1D1B" d="M34.434,125.006l2.664-1.296l3.384,3.528l-1.368,2.592
	l-1.152-1.152l-1.512,1.44l4.032,4.248l1.584-1.513l-1.008-1.006l5.4-10.514l1.224,1.295l1.512-1.51l-5.472-5.69l-1.584,1.513
	l1.224,1.225l-10.729,4.896l-0.864-0.865l-1.584,1.513l3.888,3.96l1.513-1.513L34.434,125.006L34.434,125.006z M39.114,122.702
	l5.041-2.375l-2.592,4.896L39.114,122.702L39.114,122.702z M44.586,137.102l1.08-1.871l1.441,0.865l5.543-9.65l-1.44-0.863
	l1.08-1.872l5.473,3.169l-1.08,1.871l-1.656-0.936l-5.544,9.648l3.312,1.943l1.224-2.088l2.16,1.224l-2.305,3.961L44.586,137.102
	L44.586,137.102z M58.698,144.52l10.225,3.311l1.439-4.32l-2.376-0.792l-0.791,2.305l-3.673-1.151l3.456-10.586l1.801,0.578
	l0.72-2.088l-6.048-1.945l-0.648,2.018l1.584,0.503l-3.457,10.656l-1.583-0.504L58.698,144.52L58.698,144.52z M84.043,148.12
	c1.152,0.936,2.592,1.367,4.175,1.224c2.952-0.217,4.681-2.305,4.393-5.185c-0.216-2.664-1.871-3.671-5.112-4.32l-1.871-0.359
	c-1.297-0.288-1.873-0.647-1.873-1.729c-0.144-1.079,0.576-2.016,1.944-2.16c1.584-0.072,2.736,0.72,3.384,2.449l2.088-0.145
	l-0.359-4.609l-2.16,0.217l0.072,1.009c-0.864-0.792-2.16-1.153-3.6-1.009c-2.592,0.217-4.393,2.305-4.177,4.826
	c0.216,2.229,1.656,3.383,4.32,3.887l1.8,0.361c1.872,0.358,2.809,0.861,2.881,2.159c0.143,1.224-0.865,2.375-2.305,2.519
	c-1.801,0.146-3.168-0.936-3.888-3.096l-2.16,0.217l0.432,5.256l2.16-0.217L84.043,148.12L84.043,148.12z M104.42,143.799
	l-3.024-10.729l1.944-0.576l0.576,2.16l2.376-0.719l-1.224-4.178l-11.233,3.24l1.152,4.248l2.449-0.72l-0.649-2.16l1.944-0.575
	l3.024,10.729l-1.872,0.575l0.576,2.088l6.552-1.871l-0.647-2.089L104.42,143.799L104.42,143.799z M131.132,127.239l-3.671-3.313
	l0.936-1.08c1.729-1.943,2.664-1.439,4.32,0l2.881,2.592l2.879-3.167l-1.655-1.44l-0.937,1.079l-2.447-2.16
	c-1.226-1.079-2.232-1.151-3.457-0.143c0.721-1.729,0.504-3.097-0.791-4.248c-2.088-1.873-4.177-1.226-6.697,1.513l-4.248,4.679
	l1.584,1.44l1.152-1.224l8.28,7.487l-1.08,1.225l1.584,1.439l4.177-4.68l-1.584-1.44L131.132,127.239L131.132,127.239z
	 M122.781,119.75l1.367-1.511c1.225-1.367,2.305-1.656,3.384-0.647c1.081,1.007,0.937,2.016-0.359,3.384l-1.296,1.512
	L122.781,119.75L122.781,119.75z M115.58,139.119l1.368-0.935l1.224,1.799l-4.607,3.097l-1.225-1.729l1.008-0.721l-2.952-11.448
	l-1.439,0.937l-1.151-1.729l6.551-4.464l1.152,1.801l-1.439,1.008l9.432,7.057l1.152-0.793l1.225,1.8l-4.896,3.313l-1.152-1.801
	l1.368-0.935l-2.376-1.801l-4.032,2.735L115.58,139.119L115.58,139.119z M114.141,134.15l2.879-1.943l-4.319-3.384L114.141,134.15
	L114.141,134.15z"/>
<g>
</g>
<g>
</g>
<g>
</g>
<g>
</g>
<g>
</g>
<g>
</g>
<g>
</g>
<g>
</g>
<g>
</g>
<g>
</g>
<g>
</g>
<g>
</g>
<g>
</g>
<g>
</g>
<g>
</g>
</svg>
