<?xml version="1.0" encoding="utf-8"?>
<!-- Generator: Adobe Illustrator 16.0.3, SVG Export Plug-In . SVG Version: 6.00 Build 0)  -->
<!DOCTYPE svg PUBLIC "-//W3C//DTD SVG 1.1//EN" "http://www.w3.org/Graphics/SVG/1.1/DTD/svg11.dtd">
<svg version="1.1" id="Capa_1" xmlns="http://www.w3.org/2000/svg" xmlns:xlink="http://www.w3.org/1999/xlink" x="0px" y="0px"
	 width="49.652px" height="49.652px" viewBox="0 0 49.652 49.652" enable-background="new 0 0 49.652 49.652" xml:space="preserve">
<g id="pinterest_2_">
	<g>
		<path fill="#FFFFFF" d="M25.002,0.179c-13.708,0-24.821,11.111-24.821,24.816c0,10.166,6.11,18.895,14.857,22.733
			c-0.074-1.734-0.016-3.813,0.428-5.697c0.479-2.017,3.197-13.526,3.197-13.526S17.87,26.92,17.87,24.58
			c0-3.679,2.131-6.425,4.784-6.425c2.26,0,3.348,1.697,3.348,3.726c0,2.268-1.445,5.664-2.189,8.807
			c-0.621,2.634,1.32,4.782,3.915,4.782c4.703,0,7.871-6.042,7.871-13.196c0-5.438-3.664-9.509-10.328-9.509
			c-7.53,0-12.217,5.613-12.217,11.884c0,2.164,0.634,3.686,1.635,4.867c0.458,0.544,0.522,0.763,0.354,1.384
			c-0.119,0.458-0.39,1.557-0.505,1.991c-0.165,0.63-0.673,0.854-1.243,0.623c-3.467-1.418-5.08-5.212-5.08-9.481
			c0-7.051,5.945-15.503,17.734-15.503c9.478,0,15.717,6.855,15.717,14.216c0,9.736-5.415,17.011-13.396,17.011
			c-2.679,0-5.199-1.45-6.062-3.096c0,0-1.442,5.72-1.745,6.821c-0.528,1.913-1.559,3.827-2.499,5.318
			c2.231,0.658,4.591,1.018,7.035,1.018c13.707,0,24.816-11.112,24.816-24.821C49.818,11.291,38.709,0.179,25.002,0.179z"/>
	</g>
</g>
</svg>
