<?xml version="1.0" encoding="utf-8"?>
<!-- Generator: Adobe Illustrator 16.0.3, SVG Export Plug-In . SVG Version: 6.00 Build 0)  -->
<!DOCTYPE svg PUBLIC "-//W3C//DTD SVG 1.1//EN" "http://www.w3.org/Graphics/SVG/1.1/DTD/svg11.dtd">
<svg version="1.1" id="Calque_1" xmlns="http://www.w3.org/2000/svg" xmlns:xlink="http://www.w3.org/1999/xlink" x="0px" y="0px"
	 width="370.13px" height="225.437px" viewBox="0 0 370.13 225.437" enable-background="new 0 0 370.13 225.437"
	 xml:space="preserve">
<line fill="none" stroke="#FFFFFF" stroke-width="3" stroke-miterlimit="10" x1="923.05" y1="-14.47" x2="1088.017" y2="150.496"/>
<line fill="none" stroke="#FFFFFF" stroke-width="3" stroke-miterlimit="10" x1="1088.017" y1="-14.47" x2="923.05" y2="150.496"/>
<g>
	<path fill="none" stroke="#FFFFFF" stroke-width="1.6083" stroke-miterlimit="10" d="M94.48,93.334
		c0-51.103,41.427-92.53,92.53-92.53s92.53,41.427,92.53,92.53"/>
	<g>
		<g>
			<polyline fill="none" stroke="#FFFFFF" stroke-width="5.2064" stroke-miterlimit="10" points="180.782,54.75 207.009,28.524 
				262.722,84.239 			"/>
			<polygon fill="#FFFFFF" points="188.406,55.193 207.007,36.592 232.305,61.889 213.047,55.68 208.189,51.865 200.704,56.253 
				193.407,53.66 			"/>
			<polyline fill="none" stroke="#FFFFFF" stroke-width="5.2064" stroke-miterlimit="10" points="107.408,92.019 163.122,36.304 
				202.029,75.21 			"/>
			<polygon fill="#FFFFFF" points="149.194,58.299 163.12,44.372 177.048,58.299 169.16,63.46 164.303,56.763 156.817,61.622 
				155.11,59.39 			"/>
		</g>
		<g>
			<path fill="#FFFFFF" d="M1.362,150.975h2.316c0.954,0,1.43-0.545,1.499-1.499l3.27-40.733h7.016l11.308,25.475
				c1.158,2.588,2.384,6.063,2.384,6.063h0.136c0,0,1.226-3.474,2.384-6.063l11.307-25.475h7.016l3.27,40.733
				c0.068,0.954,0.545,1.499,1.499,1.499h2.248v5.857H50.95c-3.065,0-4.155-1.294-4.359-4.359l-1.976-25.407
				c-0.204-2.86-0.136-7.084-0.136-7.084h-0.137c0,0-1.362,4.496-2.52,7.084l-9.741,21.116H26.36l-9.74-21.116
				c-1.158-2.52-2.588-7.152-2.588-7.152h-0.136c0,0,0.068,4.292-0.136,7.152l-1.907,25.407c-0.205,3.065-1.294,4.359-4.427,4.359
				H1.362V150.975z"/>
			<path fill="#FFFFFF" d="M85.347,107.925c13.896,0,24.726,10.694,24.726,24.521c0,14.168-10.831,25.203-24.726,25.203
				s-24.658-11.034-24.658-25.203C60.689,118.619,71.452,107.925,85.347,107.925z M85.347,151.246
				c9.741,0,17.642-8.174,17.642-18.799c0-10.286-7.901-18.187-17.642-18.187s-17.574,7.901-17.574,18.187
				C67.773,143.072,75.606,151.246,85.347,151.246z"/>
			<path fill="#FFFFFF" d="M118.858,116.099c0-1.022-0.545-1.499-1.498-1.499h-2.929v-5.858h6.879c3.065,0,4.359,1.294,4.359,4.359
				v26.633c0,7.22,4.564,11.511,11.512,11.511s11.512-4.291,11.512-11.579v-26.565c0-3.065,1.362-4.359,4.427-4.359h6.812v5.858
				h-2.929c-0.953,0-1.498,0.477-1.498,1.499v23.909c0,10.489-7.289,17.642-18.255,17.642c-11.035,0-18.392-7.152-18.392-17.642
				V116.099z"/>
			<path fill="#FFFFFF" d="M164.223,150.975h2.929c0.953,0,1.498-0.545,1.498-1.499v-40.733h6.199l21.388,30.448
				c1.771,2.588,4.019,6.539,4.019,6.539h0.137c0,0-0.477-3.814-0.477-6.539v-26.088c0-3.065,1.294-4.359,4.427-4.359h6.812v5.858
				h-2.929c-0.954,0-1.499,0.477-1.499,1.499v40.733h-6.13l-21.456-30.447c-1.771-2.589-3.951-6.539-3.951-6.539h-0.136
				c0,0,0.408,3.882,0.408,6.539v26.088c0,3.065-1.294,4.359-4.359,4.359h-6.879V150.975z"/>
			<path fill="#FFFFFF" d="M231.996,114.601h-9.672c-0.953,0-1.498,0.477-1.498,1.499v3.065h-6.063v-6.334
				c0-3.065,1.021-4.087,4.087-4.087h33.104c3.065,0,4.087,1.022,4.087,4.087v6.334h-6.063v-3.065c0-1.022-0.545-1.499-1.498-1.499
				h-9.672v42.231h-6.813V114.601z"/>
			<path fill="#FFFFFF" d="M251.953,150.975h0.954c1.226,0,1.839-0.273,2.248-1.499l15.054-40.733h7.151l15.054,40.733
				c0.408,1.226,1.09,1.499,2.248,1.499h1.021v5.857h-3.814c-3.406,0-4.496-0.817-5.586-3.951l-3.609-9.876h-17.71l-3.61,9.876
				c-1.158,3.134-2.248,3.951-5.653,3.951h-3.747V150.975z M280.971,137.283l-5.245-14.645c-0.886-2.52-1.907-6.744-1.907-6.744
				h-0.136c0,0-0.954,4.224-1.839,6.744l-5.245,14.645H280.971z"/>
			<path fill="#FFFFFF" d="M299.293,150.975h4.699v-36.374h-4.699v-5.858h15.87v5.858h-4.7v36.374h4.7v5.857h-15.87V150.975z"/>
			<path fill="#FFFFFF" d="M320.611,150.975h2.929c0.953,0,1.498-0.545,1.498-1.499v-40.733h6.198l21.389,30.448
				c1.771,2.588,4.019,6.539,4.019,6.539h0.137c0,0-0.478-3.814-0.478-6.539v-26.088c0-3.065,1.295-4.359,4.428-4.359h6.812v5.858
				h-2.929c-0.953,0-1.498,0.477-1.498,1.499v40.733h-6.131l-21.456-30.447c-1.771-2.589-3.951-6.539-3.951-6.539h-0.136
				c0,0,0.408,3.882,0.408,6.539v26.088c0,3.065-1.294,4.359-4.359,4.359h-6.879V150.975z"/>
		</g>
		<g>
			<path fill="#FFFFFF" d="M145.038,193.895h4.159c2.713,0,4.657,0.422,5.833,1.266c1.809,1.296,2.713,3.045,2.713,5.245
				c0,1.718-0.508,3.189-1.523,4.416c-1.015,1.226-2.366,1.964-4.055,2.215l7.338,10.127h-3.479l-6.887-9.826h-1.206v9.826h-2.894
				V193.895z M147.932,196.486v8.455c1.617,0,2.934-0.116,3.948-0.347c2.1-0.482,3.15-1.818,3.15-4.009c0-2.733-2.044-4.1-6.134-4.1
				H147.932z"/>
			<path fill="#FFFFFF" d="M172.346,193.396c3.386,0,6.264,1.176,8.635,3.527c2.371,2.351,3.557,5.219,3.557,8.604
				c0,2.181-0.538,4.197-1.612,6.051c-1.075,1.854-2.557,3.331-4.446,4.431c-1.889,1.101-3.934,1.65-6.134,1.65
				c-2.18,0-4.2-0.537-6.059-1.612c-1.858-1.075-3.34-2.557-4.445-4.445c-1.105-1.89-1.658-3.914-1.658-6.074
				c0-2.18,0.543-4.199,1.628-6.058c1.085-1.859,2.572-3.341,4.461-4.446C168.131,193.939,170.155,193.396,172.346,193.396z
				 M172.346,196.05c-1.678,0-3.225,0.417-4.642,1.25c-1.417,0.834-2.545,1.982-3.383,3.444c-0.839,1.462-1.258,3.057-1.258,4.784
				c0,1.698,0.409,3.263,1.228,4.694c0.819,1.433,1.952,2.575,3.398,3.429c1.447,0.854,2.999,1.281,4.657,1.281
				c1.667,0,3.212-0.419,4.634-1.259c1.421-0.838,2.554-1.986,3.398-3.443c0.844-1.456,1.266-3.023,1.266-4.702
				c0-1.688-0.407-3.26-1.221-4.717c-0.813-1.457-1.941-2.614-3.383-3.474S174.034,196.05,172.346,196.05z"/>
			<path fill="#FFFFFF" d="M195.991,192.869l11.138,24.294h-3.134l-2.674-5.832h-10.633l-2.653,5.832h-3.166L195.991,192.869z
				 M195.984,199.256l-4.098,9.423h8.252L195.984,199.256z"/>
			<path fill="#FFFFFF" d="M208.801,193.895h4.854c2.541,0,4.807,0.457,6.797,1.371c2.25,1.045,3.928,2.592,5.033,4.642
				c0.834,1.548,1.251,3.315,1.251,5.305c0,3.366-1.015,6.139-3.044,8.319c-2.261,2.421-5.516,3.632-9.766,3.632h-5.125V193.895z
				 M211.71,196.547v17.964h1.763c4.422,0,7.465-1.452,9.133-4.355c0.784-1.366,1.176-2.929,1.176-4.687
				c0-3.024-1.045-5.311-3.135-6.857c-1.858-1.376-4.355-2.064-7.49-2.064H211.71z"/>
		</g>
		
			<line fill="none" stroke="#FFFFFF" stroke-width="3" stroke-miterlimit="10" x1="113.564" y1="177.773" x2="256.565" y2="177.773"/>
	</g>
</g>
<g>
</g>
<g>
</g>
<g>
</g>
<g>
</g>
<g>
</g>
<g>
</g>
</svg>
