<?xml version="1.0" encoding="utf-8"?>
<!-- Generator: Adobe Illustrator 16.0.3, SVG Export Plug-In . SVG Version: 6.00 Build 0)  -->
<!DOCTYPE svg PUBLIC "-//W3C//DTD SVG 1.1//EN" "http://www.w3.org/Graphics/SVG/1.1/DTD/svg11.dtd">
<svg version="1.1" id="Calque_1" xmlns="http://www.w3.org/2000/svg" xmlns:xlink="http://www.w3.org/1999/xlink" x="0px" y="0px"
	 width="126.822px" height="50.164px" viewBox="0 0 126.822 50.164" enable-background="new 0 0 126.822 50.164"
	 xml:space="preserve">
<g>
	<g>
		<path d="M62.705,12.231v0.369h-3.021v9.447h-0.369v-9.447h-3.021v-0.369H62.705z"/>
		<path d="M70.742,22.048l-2.44-4.696h-2.967v4.696h-0.369v-9.816h3.452c0.702,0,1.304,0.25,1.805,0.752
			c0.502,0.501,0.752,1.105,0.752,1.812c0,0.652-0.219,1.221-0.656,1.709c-0.433,0.483-0.971,0.761-1.613,0.834l2.447,4.71H70.742z
			 M65.335,16.982h3.083c0.602,0,1.117-0.214,1.545-0.643c0.429-0.424,0.643-0.939,0.643-1.545s-0.214-1.124-0.643-1.552
			c-0.428-0.428-0.943-0.643-1.545-0.643h-3.083V16.982z"/>
		<path d="M79.874,12.231v9.816h-0.362V19.45h-4.45l-1.641,2.598h-0.438l1.839-2.905v-0.062h0.034l4.334-6.85H79.874z
			 M75.294,19.081h4.218v-6.665L75.294,19.081z"/>
		<path d="M89.218,12.231v9.816h-0.581l-5.646-9.447v9.447h-0.369v-9.816h0.574l5.653,9.454v-9.454H89.218z"/>
		<path d="M94.295,22.137c-0.615-0.027-1.18-0.187-1.695-0.479c-0.583-0.333-0.978-0.775-1.183-1.326l0.342-0.13
			c0.178,0.483,0.526,0.868,1.046,1.155c0.456,0.25,0.957,0.39,1.504,0.417c0.816,0.032,1.502-0.175,2.058-0.622
			c0.516-0.41,0.784-0.902,0.807-1.477c0.046-1.062-0.856-1.853-2.707-2.372c-0.998-0.278-1.75-0.647-2.256-1.107
			c-0.506-0.465-0.745-1-0.718-1.606c0.041-0.889,0.415-1.547,1.121-1.976c0.579-0.355,1.288-0.513,2.126-0.472
			c0.998,0.041,1.796,0.38,2.393,1.019l-0.273,0.253c-0.523-0.565-1.234-0.868-2.133-0.909c-0.766-0.032-1.405,0.107-1.921,0.417
			c-0.597,0.365-0.911,0.925-0.943,1.682c-0.045,1.048,0.857,1.832,2.707,2.352c0.998,0.278,1.75,0.649,2.256,1.114
			s0.745,1.005,0.718,1.62c-0.031,0.684-0.349,1.267-0.95,1.75c-0.583,0.469-1.289,0.704-2.119,0.704
			C94.414,22.144,94.354,22.141,94.295,22.137z"/>
		<path d="M104.808,12.231v0.369h-4.648v4.341h3.739v0.362h-3.739v4.744H99.79v-9.816H104.808z"/>
		<path d="M108.203,20.674c-0.979-0.975-1.47-2.153-1.47-3.534s0.49-2.559,1.47-3.534c0.976-0.98,2.153-1.47,3.534-1.47
			s2.56,0.49,3.534,1.47c0.98,0.975,1.47,2.153,1.47,3.534s-0.489,2.559-1.47,3.534c-0.975,0.98-2.153,1.47-3.534,1.47
			S109.179,21.654,108.203,20.674z M108.463,13.865c-0.906,0.902-1.36,1.994-1.36,3.274c0,1.276,0.454,2.368,1.36,3.274
			c0.902,0.907,1.994,1.36,3.274,1.36c1.281,0,2.372-0.454,3.274-1.36c0.907-0.907,1.36-1.999,1.36-3.274
			c0-1.281-0.453-2.372-1.36-3.274c-0.902-0.907-1.993-1.36-3.274-1.36C110.457,12.505,109.365,12.958,108.463,13.865z"/>
		<path d="M124.759,22.048l-2.44-4.696h-2.967v4.696h-0.369v-9.816h3.452c0.701,0,1.303,0.25,1.805,0.752
			c0.501,0.501,0.752,1.105,0.752,1.812c0,0.652-0.219,1.221-0.656,1.709c-0.434,0.483-0.971,0.761-1.613,0.834l2.447,4.71H124.759z
			 M119.352,16.982h3.083c0.602,0,1.116-0.214,1.545-0.643c0.428-0.424,0.643-0.939,0.643-1.545s-0.215-1.124-0.643-1.552
			c-0.429-0.428-0.943-0.643-1.545-0.643h-3.083V16.982z"/>
		<path d="M67.509,25.829v11.21h-1.023v-8.719l-3.773,8.727h-1.125l-3.766-8.727v8.719h-1.031v-11.21h1.078l4.281,9.921l4.289-9.921
			H67.509z"/>
		<path d="M78.25,25.829v11.218h-1.023v-2.805h-4.453L71,37.047h-1.219l7.094-11.218H78.25z M73.422,33.211h3.805v-6.008
			L73.422,33.211z"/>
		<path d="M87.601,25.829v1.031h-2.938v10.188h-1.031V26.86h-2.945v-1.031H87.601z"/>
		<path d="M89.731,25.774h1.039v11.273h-1.039V25.774z"/>
		<path d="M94.589,35.485c-1.12-1.113-1.68-2.461-1.68-4.039s0.56-2.926,1.68-4.047c1.114-1.113,2.461-1.671,4.039-1.671
			s2.927,0.558,4.047,1.671c1.114,1.121,1.672,2.469,1.672,4.047s-0.558,2.926-1.672,4.039c-1.12,1.121-2.469,1.68-4.047,1.68
			S95.703,36.606,94.589,35.485z M95.315,28.133c-0.917,0.918-1.375,2.021-1.375,3.313c0,1.293,0.458,2.396,1.375,3.313
			c0.917,0.918,2.021,1.375,3.313,1.375s2.396-0.457,3.313-1.375c0.917-0.916,1.375-2.02,1.375-3.313
			c0-1.291-0.458-2.395-1.375-3.313c-0.917-0.916-2.021-1.375-3.313-1.375S96.232,27.217,95.315,28.133z"/>
		<path d="M114.588,25.829v11.218h-1.109l-5.594-9.352v9.352h-1.031V25.829h1.117l5.586,9.351v-9.351H114.588z"/>
		<path d="M120.414,37.149c-0.724-0.031-1.388-0.221-1.992-0.57c-0.688-0.395-1.153-0.924-1.398-1.586l0.969-0.352
			c0.167,0.449,0.505,0.811,1.016,1.086c0.448,0.24,0.933,0.373,1.453,0.398c0.797,0.031,1.464-0.168,2-0.602
			c0.479-0.385,0.731-0.838,0.758-1.359c0.042-0.979-0.854-1.727-2.688-2.242c-1.323-0.369-2.269-0.885-2.836-1.547
			c-0.433-0.504-0.636-1.072-0.609-1.703c0.047-1.066,0.5-1.863,1.359-2.391c0.683-0.416,1.508-0.601,2.477-0.554
			c1.167,0.052,2.099,0.453,2.797,1.203l-0.758,0.703c-0.505-0.547-1.2-0.84-2.086-0.883c-0.761-0.031-1.391,0.105-1.891,0.406
			c-0.547,0.34-0.836,0.859-0.867,1.563c-0.042,0.959,0.854,1.695,2.688,2.211c1.323,0.371,2.269,0.889,2.836,1.555
			c0.433,0.512,0.636,1.084,0.609,1.719c-0.042,0.84-0.422,1.547-1.141,2.125c-0.688,0.553-1.519,0.828-2.492,0.828
			C120.55,37.157,120.481,37.155,120.414,37.149z"/>
	</g>
	<g>
		<rect x="8.866" y="7.385" fill="none" stroke="#707070" stroke-miterlimit="10" width="34" height="35"/>
		
			<rect x="8.175" y="7.843" transform="matrix(0.7071 0.7071 -0.7071 0.7071 25.0815 -10.3894)" fill="none" stroke="#333333" stroke-width="1.326" stroke-miterlimit="10" width="33.814" height="34.477"/>
		
			<rect x="17.166" y="16.228" transform="matrix(0.7071 0.7071 -0.7071 0.7071 25.1219 -10.9553)" fill="none" stroke="#333333" stroke-width="1.326" stroke-miterlimit="10" width="17.238" height="17.238"/>
	</g>
</g>
<g>
</g>
<g>
</g>
<g>
</g>
<g>
</g>
<g>
</g>
<g>
</g>
<g>
</g>
<g>
</g>
<g>
</g>
<g>
</g>
<g>
</g>
<g>
</g>
<g>
</g>
<g>
</g>
<g>
</g>
</svg>
